<?xml version="1.0" standalone="no"?>
<!DOCTYPE svg PUBLIC "-//W3C//DTD SVG 20010904//EN"
 "http://www.w3.org/TR/2001/REC-SVG-20010904/DTD/svg10.dtd">
<svg version="1.0" xmlns="http://www.w3.org/2000/svg"
 width="2224.000000pt" height="2224.000000pt" viewBox="0 0 2224.000000 2224.000000"
 preserveAspectRatio="xMidYMid meet">
<metadata>
Created by potrace 1.14, written by Peter Selinger 2001-2017
</metadata>
<g transform="translate(0.000000,2224.000000) scale(0.100000,-0.100000)"
fill="#000000" stroke="none">
<path d="M4140 14894 c15 -38 13 -46 -9 -34 -11 5 -27 7 -35 4 -19 -7 -19 -6
-7 -38 7 -18 6 -28 -4 -36 -18 -15 -35 16 -35 64 0 54 -24 48 -34 -9 -8 -46
26 -95 66 -95 22 1 66 26 61 35 -2 3 -3 12 -3 20 0 13 3 13 26 -1 18 -12 28
-14 36 -6 16 16 -30 122 -54 122 -15 0 -16 -4 -8 -26z"/>
<path d="M3085 14877 c-46 -15 -68 -37 -53 -54 10 -13 14 -13 24 2 6 9 28 19
48 22 30 5 36 3 36 -12 0 -10 -15 -36 -33 -59 -63 -77 -53 -94 35 -59 43 17
60 31 52 44 -5 9 -44 0 -61 -14 -21 -16 -15 4 13 44 21 31 24 41 15 58 -17 30
-42 40 -76 28z"/>
<path d="M3597 14816 c-75 -73 -89 -101 -56 -111 17 -6 32 4 75 50 53 55 55
57 78 42 13 -9 30 -22 38 -31 22 -22 52 -24 56 -3 2 10 -10 28 -29 45 -18 15
-40 34 -48 43 -34 34 -48 30 -114 -35z"/>
<path d="M4600 14818 c0 -5 -4 -7 -9 -3 -5 3 -12 1 -16 -5 -4 -6 -13 -7 -23
-1 -10 5 -27 5 -41 0 -18 -7 -21 -12 -12 -23 17 -20 6 -37 -47 -74 -82 -56
-84 -59 -77 -81 8 -25 41 -28 64 -6 9 9 37 31 63 50 l46 34 25 -19 c30 -24 41
-25 57 -5 10 12 8 21 -9 49 l-22 34 21 7 c24 8 51 -10 44 -29 -2 -6 2 -20 10
-31 11 -16 17 -17 29 -7 8 7 14 21 12 30 -2 9 -4 20 -4 23 -1 4 -12 18 -26 32
-25 24 -85 42 -85 25z"/>
<path d="M2654 14710 c-42 -20 -75 -72 -53 -85 5 -4 7 -10 4 -15 -3 -4 2 -10
10 -14 8 -3 15 -14 15 -25 0 -11 6 -26 13 -33 8 -7 12 -19 9 -26 -6 -20 31
-14 70 13 20 14 42 25 47 25 6 0 15 9 21 20 9 17 8 20 -7 20 -10 -1 -36 -9
-58 -20 -30 -14 -43 -16 -53 -7 -15 12 0 30 58 69 40 26 13 40 -34 17 -47 -23
-62 -24 -69 -5 -7 18 8 30 54 45 20 6 36 18 36 26 0 20 -13 18 -63 -5z"/>
<path d="M3313 14681 c-53 -23 -84 -43 -87 -55 -3 -11 7 -44 22 -75 30 -60 47
-67 87 -31 49 43 113 22 100 -33 -9 -34 -77 -69 -110 -57 -28 11 -59 -8 -46
-28 14 -23 87 -27 132 -7 68 31 90 90 58 152 -21 39 -100 53 -139 24 l-27 -20
-11 24 c-10 21 -8 27 16 43 15 10 42 25 59 33 35 15 47 33 36 54 -6 10 -27 4
-90 -24z"/>
<path d="M5012 14711 c-22 -13 -2 -40 39 -52 43 -14 45 -17 24 -45 -35 -46 -6
-110 64 -137 35 -15 67 -15 112 -1 21 6 42 54 38 86 -2 12 0 29 4 35 17 26
-12 48 -95 73 -45 13 -85 24 -88 23 -3 0 -12 2 -20 7 -28 14 -65 19 -78 11z
m179 -99 c31 -12 37 -24 31 -63 -5 -34 -31 -42 -74 -20 -25 12 -33 23 -35 46
-4 52 18 62 78 37z"/>
<path d="M2850 14653 c0 -24 10 -35 44 -53 69 -36 108 -133 89 -222 -6 -29
-14 -60 -18 -69 -9 -23 24 -33 45 -14 18 16 21 32 22 120 2 104 -47 194 -128
235 -49 24 -54 25 -54 3z"/>
<path d="M3646 14619 c-7 -10 -11 -51 -10 -102 2 -90 -18 -147 -51 -147 -17 0
-17 1 -19 -59 -2 -41 12 -71 34 -71 13 0 30 35 30 60 0 17 6 21 33 20 17 0 71
1 120 3 l87 4 0 -27 c0 -32 21 -53 44 -44 9 3 16 9 17 13 8 72 6 85 -16 105
-21 19 -24 33 -28 130 -3 60 -10 113 -17 120 -6 6 -51 11 -112 11 -82 0 -102
-3 -112 -16z m151 -74 c1 -16 4 -60 6 -97 l4 -67 -67 2 -67 1 8 31 c5 16 9 58
9 92 0 60 1 62 28 66 60 10 77 4 79 -28z"/>
<path d="M3979 14623 c-7 -8 -14 -45 -16 -81 -11 -243 -12 -239 30 -228 21 5
25 12 25 47 1 23 3 43 5 46 3 2 33 4 68 5 115 1 161 52 129 145 -14 39 -58 63
-128 69 -31 3 -67 7 -79 9 -12 2 -27 -3 -34 -12z m159 -73 c24 -22 26 -29 14
-46 -12 -19 -45 -30 -87 -29 -43 0 -42 -2 -36 78 2 26 80 24 109 -3z"/>
<path d="M4271 14596 c-15 -17 -7 -52 29 -131 38 -84 46 -123 26 -131 -9 -3
-23 -1 -31 6 -20 17 -67 -2 -59 -24 7 -18 29 -24 84 -20 39 2 50 9 83 46 51
57 57 65 57 77 0 5 3 11 8 13 14 6 82 114 82 131 0 34 -38 18 -74 -30 -20 -27
-39 -52 -44 -58 -4 -5 -15 -21 -24 -34 l-17 -24 -21 47 c-11 26 -20 51 -20 55
0 4 -7 22 -16 40 -20 40 -48 56 -63 37z"/>
<path d="M2249 14576 c-3 -3 -16 -7 -30 -9 -13 -2 -26 -12 -28 -22 -2 -15 2
-17 28 -12 36 8 40 -4 11 -35 -11 -12 -20 -27 -20 -34 0 -15 28 -26 43 -17 12
7 19 9 54 16 9 2 18 8 20 14 5 15 -27 25 -42 13 -6 -5 -15 -7 -18 -4 -7 7 13
54 24 54 4 0 6 8 5 18 -3 16 -36 29 -47 18z"/>
<path d="M4580 14526 c-23 -7 -36 -18 -38 -32 -4 -27 20 -37 54 -24 39 15 69
12 97 -10 17 -14 23 -26 20 -41 -5 -18 -11 -19 -53 -14 -29 4 -51 2 -55 -4 -9
-16 13 -51 33 -51 28 0 74 -43 67 -62 -7 -19 -48 -31 -81 -24 -27 5 -64 36
-64 52 0 14 -28 26 -41 18 -18 -11 -8 -51 19 -75 74 -67 199 -71 233 -8 16 31
3 84 -24 96 l-22 11 28 12 c22 11 27 20 27 51 0 79 -108 135 -200 105z"/>
<path d="M5510 14507 c-14 -7 -27 -14 -30 -17 -3 -3 -42 -28 -87 -55 -98 -59
-104 -77 -36 -106 25 -11 55 -21 67 -23 15 -2 22 -12 26 -37 6 -38 21 -40 56
-6 13 12 29 22 36 22 19 0 21 30 4 47 -12 13 -12 23 8 80 12 36 20 71 18 77
-7 21 -36 29 -62 18z m-22 -106 c-9 -37 -12 -39 -34 -31 -13 5 -24 7 -24 4 0
-3 -5 -2 -11 2 -6 4 7 18 33 35 23 16 44 29 44 29 1 0 -3 -18 -8 -39z"/>
<path d="M2478 14483 c-38 -19 -70 -68 -70 -108 0 -45 55 -147 91 -168 34 -20
79 -14 129 16 59 35 68 93 21 139 -27 28 -34 30 -77 24 -30 -4 -56 -15 -74
-33 l-27 -26 -9 24 c-17 45 25 93 79 92 40 -1 63 15 50 35 -10 17 -82 21 -113
5z m140 -159 c14 -25 4 -49 -29 -68 -23 -14 -33 -15 -51 -5 -44 23 -42 35 12
72 31 21 56 22 68 1z"/>
<path d="M4888 14467 c-15 -12 -85 -204 -94 -259 -4 -20 0 -30 15 -38 12 -6
21 -8 21 -4 0 3 6 2 13 -3 15 -12 50 -23 98 -29 70 -10 129 40 129 110 0 31
-7 45 -34 70 -18 18 -52 38 -75 45 -34 10 -41 16 -36 29 18 46 17 70 -3 81
-14 7 -23 7 -34 -2z m97 -194 c19 -14 24 -24 19 -43 -7 -30 -20 -40 -56 -40
-53 0 -94 31 -70 54 4 4 7 11 8 14 0 4 4 15 9 25 9 23 52 18 90 -10z"/>
<path d="M1892 14399 c-42 -12 -36 -35 7 -32 l33 2 -26 -34 c-27 -35 -26 -65
2 -60 9 2 17 4 17 5 0 1 7 3 16 5 40 7 60 18 56 28 -5 13 -22 13 -50 2 -18 -7
-17 -5 2 33 12 23 21 46 21 52 0 12 -33 12 -78 -1z"/>
<path d="M5810 14343 c-8 -4 -24 -17 -35 -30 -11 -12 -26 -23 -32 -23 -6 0
-16 -7 -23 -15 -10 -12 -9 -16 4 -21 19 -7 16 -22 -16 -91 -23 -49 -21 -78 6
-78 13 0 27 15 42 43 13 23 23 46 23 50 4 29 14 43 29 36 10 -3 27 -9 40 -11
33 -8 31 34 -3 47 -14 5 -25 16 -25 24 0 21 32 25 53 7 15 -13 19 -13 32 0 17
17 3 38 -38 57 -30 13 -34 13 -57 5z"/>
<path d="M5164 14307 c-28 -25 -34 -62 -19 -117 6 -24 2 -28 -45 -50 -40 -19
-50 -28 -48 -44 4 -30 33 -27 108 10 62 30 67 31 96 16 l32 -15 -21 -49 c-15
-37 -17 -52 -9 -60 27 -27 41 -15 77 60 40 81 53 114 51 122 0 3 7 16 17 30
34 49 24 59 -103 107 -55 20 -105 16 -136 -10z m114 -44 c62 -28 64 -31 44
-67 -9 -17 -21 -34 -26 -38 -16 -11 -96 44 -96 67 0 12 28 55 37 55 3 0 21 -8
41 -17z"/>
<path d="M2100 14305 c-13 -16 6 -32 44 -37 l28 -3 -26 -28 c-31 -33 -26 -47
14 -47 26 0 46 -22 35 -40 -7 -11 -57 0 -78 18 -25 22 -44 2 -25 -27 18 -29
55 -39 103 -29 45 10 55 21 55 64 0 23 -7 34 -26 45 l-26 13 28 22 c38 31 27
54 -28 55 -24 1 -53 3 -65 4 -13 1 -27 -3 -33 -10z"/>
<path d="M3150 14300 c-84 -23 -131 -105 -89 -156 6 -8 20 -14 30 -14 23 0 28
-10 19 -35 -11 -31 8 -72 40 -85 23 -9 41 -9 78 -1 55 14 93 44 112 91 12 29
11 37 -6 69 -16 30 -25 37 -55 39 -31 3 -36 6 -32 25 6 41 -50 80 -97 67z m31
-62 c-1 -5 -1 -17 -1 -28 0 -29 -48 -46 -69 -25 -15 15 -13 18 14 41 28 23 57
29 56 12z m83 -93 c32 -33 -37 -105 -85 -90 -35 11 -10 77 36 95 29 12 32 12
49 -5z"/>
<path d="M2832 14258 c-29 -29 4 -72 35 -46 12 10 18 9 29 -7 8 -10 17 -16 20
-12 13 13 -7 54 -31 65 -32 15 -38 15 -53 0z"/>
<path d="M1724 14183 c3 -16 2 -35 -3 -43 -12 -17 15 -67 38 -73 9 -2 38 7 64
20 48 24 67 23 67 -2 0 -16 -49 -57 -60 -50 -12 7 -33 -23 -27 -38 3 -9 22
-13 58 -11 49 1 54 4 56 25 1 13 5 40 8 60 5 26 3 40 -10 52 -23 24 -51 21
-101 -8 -24 -14 -45 -21 -48 -16 -11 18 6 41 45 58 43 19 46 25 24 43 -11 9
-22 9 -47 1 -21 -8 -35 -8 -42 -1 -18 18 -28 11 -22 -17z"/>
<path d="M4210 14187 c-52 -42 -56 -114 -7 -131 25 -9 32 -7 63 27 35 37 59
42 47 9 -9 -22 -43 -59 -43 -46 0 5 -5 1 -11 -9 -23 -39 15 -49 52 -14 25 24
32 39 32 72 0 44 -4 52 -29 64 -23 10 -29 8 -61 -24 -32 -32 -53 -44 -53 -30
0 15 34 55 46 55 8 0 14 9 14 20 0 23 -26 26 -50 7z"/>
<path d="M3806 14165 c-9 -9 -20 -35 -26 -58 -6 -23 -15 -54 -20 -69 -10 -30
11 -68 37 -68 9 0 32 -5 50 -12 45 -17 66 -2 71 48 4 42 26 84 44 84 6 0 20
-7 29 -16 18 -16 18 -18 1 -47 -9 -17 -27 -42 -39 -54 -40 -41 -4 -71 45 -37
69 48 76 178 11 205 -36 14 -91 5 -113 -20 -10 -11 -20 -38 -23 -61 -4 -30
-10 -40 -20 -36 -8 4 -19 6 -25 6 -9 0 -2 54 10 75 15 24 9 75 -8 75 -5 0 -16
-7 -24 -15z"/>
<path d="M3471 14114 c-38 -16 -61 -42 -54 -60 8 -22 31 -23 68 -5 47 23 83
16 91 -16 4 -13 5 -25 3 -26 -54 -36 -79 -61 -79 -81 0 -32 35 -41 58 -16 10
11 33 29 51 42 19 13 36 34 38 46 5 38 -25 89 -65 108 -50 24 -71 26 -111 8z"/>
<path d="M6004 14091 c-117 -54 -99 -160 22 -130 34 9 48 9 57 0 9 -9 6 -13
-11 -17 -12 -4 -22 -10 -22 -13 0 -4 -13 -6 -28 -3 -35 5 -65 -24 -41 -39 37
-24 110 -1 148 46 20 27 19 47 -6 77 -14 16 -22 16 -100 3 -24 -4 -43 -4 -43
0 0 15 35 34 61 35 15 0 32 6 38 14 9 10 6 17 -12 29 -22 14 -27 14 -63 -2z"/>
<path d="M1513 14093 c-19 -7 -15 -33 11 -80 33 -57 39 -79 24 -81 -21 -1 -93
-11 -98 -13 -3 -1 -9 -1 -14 0 -14 3 -24 -19 -19 -39 5 -20 17 -20 143 -5 44
5 64 2 100 -14 42 -19 46 -19 58 -4 18 25 11 35 -37 60 -31 16 -50 35 -68 70
-14 26 -29 52 -34 58 -5 5 -9 17 -9 26 0 23 -28 34 -57 22z"/>
<path d="M2412 14087 c-43 -12 -91 -54 -93 -83 -1 -8 -2 -24 -4 -36 -1 -13 5
-33 12 -46 9 -15 11 -28 4 -39 -6 -11 -6 -24 0 -35 10 -18 37 -19 129 -3 83
15 141 23 177 24 19 1 43 30 37 46 -8 21 -35 26 -72 16 l-32 -10 5 50 c10 98
-57 144 -163 116z m92 -85 c3 -5 8 -23 11 -40 4 -26 1 -34 -19 -48 -14 -8 -29
-13 -34 -11 -4 3 -14 2 -22 -3 -8 -5 -25 -3 -42 6 -22 12 -28 21 -28 49 0 37
7 45 60 61 33 10 62 5 74 -14z"/>
<path d="M2789 14054 c-6 -8 -9 -24 -5 -37 4 -19 22 -29 83 -50 115 -40 115
-40 34 -77 -79 -37 -101 -56 -97 -85 4 -30 48 -30 98 -1 24 14 59 33 78 43 19
9 37 20 40 23 3 3 17 13 32 23 25 16 28 28 19 78 0 4 -22 14 -48 24 -27 9 -77
28 -113 42 -79 31 -106 34 -121 17z"/>
<path d="M5463 14062 c-30 -5 -73 -57 -73 -89 0 -36 35 -89 69 -103 48 -19
121 8 147 55 18 32 9 96 -16 127 -33 40 -76 9 -46 -34 18 -26 21 -74 5 -83
-14 -9 -17 -5 -24 30 -3 17 -8 37 -10 45 -2 8 -4 22 -4 31 -1 20 -17 26 -48
21z m8 -79 c0 -16 2 -36 4 -45 4 -22 -3 -23 -26 -2 -10 9 -16 22 -13 30 2 8 6
21 9 29 8 25 25 17 26 -12z"/>
<path d="M4673 13962 c-37 -48 -73 -93 -80 -100 -20 -20 -25 -50 -13 -73 11
-20 17 -21 79 -15 36 3 77 8 91 10 14 3 47 7 74 11 60 7 66 11 66 36 0 17 -6
20 -45 18 -24 -2 -46 -1 -48 2 -2 2 -16 25 -31 51 l-28 47 26 33 c26 34 24 50
-6 61 -13 5 -34 -14 -85 -81z m67 -109 c0 -7 -8 -13 -17 -14 -10 0 -33 -2 -50
-3 -18 -1 -33 -1 -33 1 0 2 14 19 32 39 l32 35 18 -23 c10 -13 18 -29 18 -35z"/>
<path d="M4234 13935 c-4 -8 -4 -26 0 -39 7 -27 0 -37 -20 -29 -8 3 -14 16
-14 28 0 46 -44 43 -48 -3 -3 -44 35 -80 89 -87 42 -4 47 -3 53 18 4 17 20 26
71 42 44 13 67 25 71 38 11 34 -9 38 -77 17 -80 -25 -76 -25 -83 5 -7 27 -33
34 -42 10z"/>
<path d="M2064 13925 c-9 -23 3 -45 25 -45 24 0 39 39 20 51 -21 13 -39 11
-45 -6z"/>
<path d="M5793 13933 c-18 -7 -16 -27 5 -46 23 -21 45 -7 40 24 -3 24 -21 32
-45 22z"/>
<path d="M6273 13883 c-29 -6 -61 -46 -69 -88 -8 -43 11 -99 39 -118 29 -18
95 -40 127 -42 92 -4 154 118 96 190 -19 24 -31 30 -66 30 -36 0 -47 -6 -71
-35 -16 -19 -32 -49 -35 -67 -7 -37 -10 -39 -30 -19 -24 24 -16 58 21 92 23
21 33 37 29 48 -3 9 -9 15 -13 15 -3 -1 -16 -4 -28 -6z m158 -125 c11 -43 -41
-85 -76 -60 -13 9 -11 41 4 71 18 32 62 26 72 -11z"/>
<path d="M5195 13871 c-3 -6 -26 -23 -50 -40 l-44 -30 -20 25 c-15 19 -26 24
-41 19 -22 -7 -28 -51 -7 -58 9 -3 9 -9 -2 -29 -16 -31 -7 -51 19 -43 14 4 29
-10 66 -60 26 -36 51 -65 54 -65 20 0 44 32 46 61 10 105 14 147 19 178 4 23
2 37 -7 42 -17 11 -26 11 -33 0z m-19 -127 c-3 -26 -7 -48 -9 -51 -3 -2 -14
12 -25 31 l-20 35 21 15 c34 24 39 19 33 -30z"/>
<path d="M1925 13849 c-8 -25 1 -39 26 -39 23 0 36 27 20 43 -18 18 -40 16
-46 -4z"/>
<path d="M1250 13826 c0 -26 -29 -44 -41 -24 -4 6 -5 16 -2 21 3 5 -3 7 -13 5
-11 -2 -19 -12 -19 -23 0 -11 -10 -26 -22 -33 -30 -17 -32 -48 -3 -32 17 9 20
8 20 -9 0 -11 -7 -24 -16 -29 -9 -5 -14 -15 -10 -21 4 -6 11 -9 16 -6 9 6 25
-13 25 -30 0 -5 7 -10 15 -10 8 0 14 6 12 14 -4 18 17 41 36 41 8 0 12 -3 9
-7 -8 -7 11 -33 24 -33 5 0 9 13 9 29 0 16 6 31 15 35 24 9 19 39 -5 31 -24
-8 -29 20 -5 29 8 3 15 12 15 21 0 8 -7 15 -15 15 -8 0 -15 9 -15 20 0 11 -7
20 -15 20 -9 0 -15 -9 -15 -24z m0 -90 c0 -7 -11 -16 -24 -18 -22 -4 -25 2
-17 30 3 10 41 -1 41 -12z"/>
<path d="M3505 13830 c-8 -25 1 -40 24 -40 24 0 40 18 34 41 -7 26 -50 25 -58
-1z"/>
<path d="M5707 13802 c-14 -15 -14 -19 -1 -37 11 -15 18 -17 31 -9 23 14 25
42 3 54 -13 7 -22 5 -33 -8z"/>
<path d="M2025 13751 c-73 -42 -90 -64 -90 -119 1 -110 42 -182 105 -182 25 0
75 25 103 50 24 23 25 88 2 123 -31 48 -115 59 -153 20 -20 -19 -25 -11 -13
21 7 17 29 35 66 53 36 18 55 33 55 45 0 25 -17 22 -75 -11z m61 -159 c15 -10
26 -64 16 -80 -13 -20 -54 -23 -74 -5 -23 21 -23 69 0 82 20 12 43 13 58 3z"/>
<path d="M3267 13769 c-25 -15 -45 -60 -41 -93 4 -38 32 -65 78 -76 33 -7 40
-5 72 25 27 26 35 40 32 62 -8 70 -85 115 -141 82z"/>
<path d="M1663 13753 c-15 -8 -42 -25 -60 -39 -38 -29 -50 -30 -58 -6 -3 11
-16 24 -30 30 -21 10 -26 8 -36 -9 -10 -20 -7 -28 26 -65 6 -6 43 -50 83 -97
79 -93 83 -94 136 -48 76 67 103 121 84 171 -20 55 -97 88 -145 63z m91 -87
c7 -26 -7 -50 -44 -76 l-29 -21 -30 33 c-16 18 -27 37 -25 43 3 6 23 23 45 37
34 22 45 25 59 15 10 -6 21 -20 24 -31z"/>
<path d="M2412 13747 c-18 -6 -44 -21 -59 -34 -23 -22 -24 -26 -10 -40 14 -14
19 -13 50 11 43 33 65 33 77 0 6 -14 10 -27 10 -29 0 -1 -24 -35 -54 -73 -46
-60 -53 -73 -42 -87 11 -16 17 -15 87 5 84 26 92 30 84 53 -7 16 -32 15 -81
-3 -36 -14 -39 -8 -10 21 33 34 66 90 66 114 -1 49 -59 79 -118 62z"/>
<path d="M3647 13727 c-14 -20 -11 -29 38 -122 29 -55 69 -130 88 -167 l35
-68 -25 -20 c-22 -17 -28 -18 -52 -7 -36 18 -60 11 -68 -20 -5 -21 0 -31 21
-50 42 -35 113 -30 162 13 20 18 94 127 94 138 0 3 27 54 60 114 33 60 60 122
60 136 0 33 -19 54 -44 50 -19 -3 -56 -32 -56 -45 0 -20 -104 -219 -110 -212
-4 4 -38 67 -75 138 -80 153 -68 135 -93 140 -13 2 -26 -4 -35 -18z"/>
<path d="M5494 13715 c-16 -7 -42 -27 -58 -44 -25 -26 -30 -40 -30 -80 0 -42
5 -53 31 -78 91 -83 122 -97 177 -82 56 16 93 65 101 134 4 40 -49 85 -100 85
-35 0 -84 -38 -101 -79 -14 -33 -15 -33 -29 -15 -8 10 -15 29 -15 42 0 27 33
62 59 62 27 0 47 28 35 47 -13 21 -34 24 -70 8z m147 -135 c25 -14 25 -54 -1
-80 -20 -20 -45 -25 -74 -14 -23 9 -10 54 23 81 30 27 27 26 52 13z"/>
<path d="M4270 13699 c-57 -17 -108 -60 -129 -109 -27 -63 -44 -166 -36 -220
15 -98 124 -180 234 -174 74 4 83 5 99 18 68 53 76 81 33 103 -20 9 -30 9 -53
-3 -48 -25 -111 -28 -153 -8 -47 22 -77 81 -65 125 5 16 9 32 9 34 -2 28 17
96 33 117 39 55 133 49 197 -12 46 -45 60 -48 86 -20 15 17 16 24 5 50 -14 34
-71 83 -110 94 -44 13 -114 15 -150 5z"/>
<path d="M5863 13672 c-19 -19 -32 -36 -30 -39 3 -2 1 -18 -3 -34 -7 -24 -5
-31 11 -40 11 -5 18 -13 15 -17 -2 -4 2 -22 9 -39 26 -60 126 -51 174 16 12
17 20 31 17 31 -3 0 -1 11 4 25 12 31 -6 82 -41 114 -19 17 -34 21 -73 20 -41
-2 -55 -8 -83 -37z m163 -38 c38 -46 14 -122 -44 -142 -35 -12 -75 4 -80 31
-4 21 24 23 32 2 8 -22 29 -9 45 27 16 35 8 56 -29 75 -28 14 -63 -3 -57 -29
3 -10 -3 -18 -13 -21 -16 -4 -17 -2 -8 22 31 72 110 91 154 35z m-55 -40 c11
-14 10 -18 -6 -30 -16 -12 -20 -11 -32 6 -25 35 11 57 38 24z"/>
<path d="M3093 13680 c-22 -9 -45 -42 -50 -73 -8 -46 47 -95 97 -88 10 1 8 -4
-6 -16 -30 -25 -42 -52 -39 -90 1 -18 0 -33 -2 -33 -2 0 -19 15 -38 34 -31 31
-37 33 -71 26 -35 -8 -52 -22 -55 -45 -1 -5 -3 -27 -4 -48 l-3 -39 36 7 c20 3
89 24 152 46 63 22 131 42 150 45 18 3 56 14 82 25 26 10 48 17 48 15 0 -7
111 31 112 38 0 5 -21 31 -47 58 -45 48 -50 50 -88 45 -54 -7 -76 -32 -79 -90
-3 -46 -18 -61 -35 -34 -13 21 -65 57 -73 52 -19 -12 -19 15 0 28 24 17 34 71
18 101 -23 43 -58 55 -105 36z"/>
<path d="M1361 13599 c-27 -16 -101 -111 -101 -128 0 -17 188 -202 209 -206
36 -7 37 33 1 69 l-31 33 34 34 c19 19 39 43 44 54 55 103 -56 205 -156 144z
m90 -49 c29 -16 23 -50 -18 -92 l-37 -38 -33 32 c-39 38 -40 47 -11 73 40 35
67 42 99 25z"/>
<path d="M2943 13602 c-41 -13 -97 -112 -63 -112 6 0 28 -8 49 -18 33 -16 42
-17 64 -6 30 16 40 51 26 93 -9 26 -38 54 -51 50 -2 -1 -13 -4 -25 -7z"/>
<path d="M4692 13597 c-12 -6 -22 -16 -22 -24 0 -7 -4 -21 -10 -31 -12 -22
-70 -152 -70 -157 0 -3 -15 -36 -34 -75 -58 -119 -57 -160 5 -160 21 0 32 6
38 23 5 12 27 62 50 110 23 49 41 90 41 92 0 5 51 117 56 124 2 2 48 -15 103
-39 l100 -42 -26 -61 c-31 -75 -44 -107 -72 -172 -37 -84 -39 -89 -45 -108 -6
-20 26 -57 50 -57 17 0 44 24 48 43 2 6 16 41 33 77 80 176 125 290 120 303
-6 17 -47 47 -69 51 -14 3 -35 12 -123 51 -117 52 -150 62 -173 52z"/>
<path d="M6575 13585 c-43 -21 -85 -90 -85 -137 0 -65 47 -91 113 -63 13 6 17
2 17 -17 0 -30 29 -58 59 -58 29 0 81 30 81 47 0 7 3 13 8 13 13 0 28 46 26
80 -3 42 -29 63 -70 57 -29 -5 -31 -3 -32 25 0 17 -7 37 -14 44 -22 21 -71 25
-103 9z m63 -79 c7 -57 -80 -107 -90 -52 -8 41 29 88 67 83 14 -1 21 -11 23
-31z m99 -82 c2 -7 -7 -25 -20 -40 -21 -24 -27 -26 -41 -15 -21 18 -20 27 5
52 21 21 50 22 56 3z"/>
<path d="M936 13546 l-29 -24 18 -66 c10 -37 22 -69 27 -72 16 -10 20 27 8 72
-14 48 -10 57 27 69 18 5 25 1 32 -17 5 -13 15 -38 23 -55 7 -18 19 -33 26
-33 28 0 -14 122 -48 140 -29 15 -52 11 -84 -14z"/>
<path d="M2692 13470 c-14 -15 -49 -102 -57 -140 -4 -19 -49 -146 -54 -152 -3
-4 -24 28 -45 71 -42 83 -65 106 -97 96 -38 -12 -39 -45 -5 -110 17 -33 34
-62 37 -65 3 -3 32 -54 64 -115 77 -146 76 -145 102 -145 61 0 69 34 24 105
-28 44 -28 45 -13 92 8 27 17 50 18 52 2 2 58 -20 124 -49 130 -56 162 -59
182 -16 13 31 -13 69 -57 84 -41 14 -198 83 -208 91 -4 4 6 33 22 64 49 96 53
115 31 137 -25 25 -44 25 -68 0z"/>
<path d="M6218 13469 c-10 -5 -18 -17 -18 -24 0 -8 -3 -15 -8 -15 -4 0 -14
-15 -21 -32 -8 -18 -27 -54 -43 -81 -37 -62 -44 -93 -24 -100 14 -6 31 10 63
59 12 18 12 18 19 -3 8 -28 63 -54 95 -45 55 16 62 27 76 117 6 37 -25 80 -64
89 -16 4 -35 16 -43 26 -11 14 -19 17 -32 9z m69 -73 c31 -10 37 -40 17 -76
-22 -35 -37 -42 -68 -30 -40 15 -40 60 -1 106 10 12 17 12 52 0z"/>
<path d="M1149 13378 c-22 -24 -39 -46 -39 -50 0 -4 -13 -21 -30 -38 -16 -17
-30 -39 -30 -49 0 -10 19 -35 43 -54 23 -20 69 -61 102 -91 33 -31 65 -56 72
-56 13 0 28 14 63 59 14 18 30 38 35 44 59 68 65 79 55 98 -6 10 -16 19 -23
19 -12 0 -90 -83 -110 -116 -12 -20 -34 -17 -51 8 -14 20 -13 24 17 62 45 55
48 62 41 80 -10 26 -39 19 -65 -16 -13 -17 -33 -40 -43 -50 -19 -17 -20 -17
-43 4 -13 12 -20 24 -15 27 4 3 26 29 47 56 22 28 44 53 48 56 10 7 -13 49
-27 49 -4 0 -26 -19 -47 -42z"/>
<path d="M1695 13374 c-22 -7 -41 -14 -43 -14 -1 0 -11 -14 -21 -31 -24 -39
-12 -86 25 -95 24 -6 24 -6 5 -30 -16 -20 -18 -31 -10 -57 5 -17 9 -33 9 -33
0 -1 20 -11 45 -23 53 -25 95 -27 141 -5 46 22 56 38 58 84 0 33 -5 45 -29 65
-17 13 -38 24 -48 25 -17 0 -17 2 2 26 19 24 19 28 6 54 -8 16 -23 31 -32 33
-51 14 -72 14 -108 1z m69 -30 c9 -3 16 -14 16 -24 0 -28 -48 -44 -82 -28 -41
20 22 69 66 52z m74 -135 c8 -45 -79 -87 -112 -54 -22 22 -20 30 11 55 32 25
96 25 101 -1z"/>
<path d="M775 13352 c-19 -13 -32 -57 -25 -78 5 -11 4 -27 -1 -35 -15 -23 -10
-29 21 -29 17 0 31 3 31 8 7 43 6 62 -1 62 -4 0 -11 -6 -13 -12 -3 -7 -6 -4
-6 7 0 11 3 27 9 35 7 12 10 11 16 -5 26 -67 87 -82 99 -25 9 40 -2 53 -36 46
-18 -3 -31 -1 -36 8 -10 17 -45 28 -58 18z m97 -77 c0 -5 -5 -11 -11 -13 -6
-2 -11 4 -11 13 0 9 5 15 11 13 6 -2 11 -8 11 -13z"/>
<path d="M5202 13327 c-12 -5 -32 -26 -44 -46 -12 -20 -26 -40 -31 -46 -4 -5
-35 -48 -67 -95 -33 -47 -63 -89 -67 -95 -23 -29 -43 -66 -43 -79 0 -14 26
-39 84 -81 67 -49 133 -98 156 -116 46 -36 105 -16 93 32 -3 10 -54 53 -114
95 -60 43 -109 80 -109 84 0 3 14 25 30 47 l31 42 81 -58 c83 -60 109 -66 128
-31 9 18 3 60 -10 60 -4 0 -17 9 -30 20 -12 11 -44 33 -71 50 l-48 31 27 44
c30 50 43 54 72 25 11 -11 23 -20 26 -20 5 0 103 -78 114 -91 3 -3 15 -11 28
-18 19 -10 28 -10 48 4 53 35 35 53 -244 241 -12 9 -23 9 -40 1z"/>
<path d="M5782 13252 c-56 -50 -72 -71 -67 -84 8 -20 17 -22 100 -18 59 2 60
2 43 -17 -10 -11 -18 -23 -18 -27 0 -4 -9 -16 -20 -28 -23 -25 -26 -51 -7 -67
14 -11 35 -9 77 7 14 5 30 11 35 12 6 2 25 9 43 17 18 7 37 11 41 8 7 -4 20
25 21 46 0 17 -34 16 -76 -2 -25 -11 -48 -19 -50 -16 -2 2 7 21 21 41 14 20
25 45 25 55 0 17 -7 18 -67 14 l-68 -5 20 23 c11 13 30 32 43 42 12 10 22 22
22 27 0 10 -29 40 -38 40 -4 0 -40 -31 -80 -68z"/>
<path d="M6803 13242 c-5 -15 -8 -52 -8 -82 l0 -55 40 3 c55 3 83 -5 95 -28
29 -54 -51 -82 -110 -39 -44 33 -79 9 -47 -32 44 -58 175 -58 206 -1 24 45 6
110 -36 133 -13 7 -41 13 -61 14 -33 0 -37 3 -37 25 0 21 5 25 30 24 17 -1 35
-3 40 -4 29 -7 85 1 85 13 -1 28 -19 37 -95 42 -43 4 -82 8 -86 11 -4 2 -11
-8 -16 -24z"/>
<path d="M3317 13239 c-56 -9 -102 -34 -130 -72 -19 -25 -20 -28 -5 -43 15
-15 19 -15 51 5 19 11 37 18 40 14 4 -3 7 -2 7 4 0 18 81 25 132 12 26 -7 48
-16 48 -21 0 -4 6 -8 13 -8 7 0 30 -14 51 -32 30 -25 42 -29 55 -21 9 6 14 19
13 29 -5 23 -53 82 -68 83 -6 1 -17 7 -23 15 -6 7 -24 16 -39 20 -15 3 -43 9
-62 14 -19 4 -56 5 -83 1z"/>
<path d="M1004 13192 c-22 -14 -112 -164 -107 -177 4 -11 184 -143 230 -169
12 -6 43 18 43 35 0 5 -45 39 -100 75 -55 37 -100 71 -100 75 0 5 18 35 41 68
22 33 39 68 37 78 -4 19 -26 27 -44 15z"/>
<path d="M6515 13180 c-3 -11 -9 -19 -13 -19 -47 7 -92 -35 -92 -85 0 -28 7
-40 33 -60 19 -15 37 -26 40 -26 3 0 22 -9 41 -21 30 -18 34 -24 25 -40 -13
-25 -72 -23 -96 3 -9 10 -27 18 -40 18 -30 0 -31 -34 -1 -58 12 -9 31 -27 43
-39 25 -26 41 -29 48 -9 3 7 19 16 36 19 41 9 65 47 57 92 -4 19 -11 35 -16
35 -5 0 -15 6 -22 13 -7 6 -34 22 -60 34 -43 20 -55 40 -35 59 20 20 87 3 121
-31 21 -21 56 -10 56 17 0 20 -42 68 -59 68 -5 0 -11 10 -15 23 -7 29 -43 33
-51 7z"/>
<path d="M2159 13146 c-73 -22 -130 -76 -154 -145 -32 -94 -12 -152 91 -257
89 -92 145 -107 239 -64 132 60 178 227 89 326 -11 12 -33 36 -49 55 -73 83
-137 108 -216 85z m86 -106 c32 -12 116 -96 132 -132 20 -45 -7 -111 -55 -137
-60 -32 -103 -18 -180 61 -43 44 -53 61 -54 91 -3 82 82 146 157 117z"/>
<path d="M617 13112 c-69 -42 -61 -146 14 -181 69 -33 163 27 164 104 0 19 -3
35 -8 35 -4 0 -6 3 -5 8 4 15 -27 52 -45 52 -26 0 -31 -24 -12 -60 16 -32 14
-80 -5 -80 -10 0 -16 18 -25 77 -9 59 -32 72 -78 45z m33 -108 c0 -40 -2 -44
-15 -30 -19 18 -26 57 -13 73 17 21 28 4 28 -43z"/>
<path d="M14315 13108 c-236 -26 -392 -172 -445 -416 -10 -48 -21 -105 -24
-127 -3 -22 -8 -51 -10 -65 -3 -14 -7 -41 -10 -60 -3 -19 -15 -89 -26 -155
-12 -66 -23 -138 -26 -160 -2 -22 -7 -51 -10 -65 -5 -24 -39 -228 -50 -300 -3
-19 -12 -71 -20 -115 -8 -44 -17 -98 -20 -120 -2 -22 -6 -51 -9 -65 -9 -47
-25 -135 -30 -175 -4 -22 -8 -51 -11 -65 -2 -14 -7 -41 -10 -60 -3 -19 -8 -42
-11 -50 -3 -8 -7 -24 -8 -35 -2 -11 -7 -45 -11 -75 -5 -30 -9 -111 -9 -180 0
-116 2 -129 27 -184 42 -89 135 -165 220 -181 13 -3 34 -7 48 -11 57 -13 170
-4 238 20 61 22 83 37 144 99 44 45 63 74 86 135 17 42 32 95 36 117 3 22 7
50 10 61 2 12 7 37 10 55 3 19 8 45 10 59 3 14 10 54 16 90 18 98 18 97 40
220 12 63 23 129 25 145 3 17 9 53 15 80 5 28 12 67 16 89 3 21 8 48 10 60 2
11 7 34 10 51 3 16 7 31 9 33 13 14 34 -15 59 -79 15 -41 34 -87 41 -104 21
-46 135 -339 135 -347 0 -4 11 -31 24 -60 13 -29 38 -90 56 -136 32 -81 91
-183 127 -219 96 -96 240 -138 382 -111 174 32 283 161 404 478 24 63 48 124
52 135 4 11 9 25 11 30 1 6 12 33 24 60 33 76 36 85 61 150 12 33 30 78 40
100 10 23 21 53 25 69 10 43 46 49 49 8 0 -9 4 -23 9 -30 4 -6 5 -12 3 -12 -2
0 -1 -19 4 -42 5 -24 13 -70 19 -103 5 -33 12 -71 15 -85 3 -14 12 -63 20
-110 8 -47 17 -96 20 -110 2 -13 7 -40 10 -60 3 -20 8 -47 11 -60 3 -14 7 -34
8 -45 2 -11 6 -36 10 -55 8 -48 15 -88 22 -130 25 -158 67 -258 139 -336 79
-84 258 -135 385 -109 222 44 327 227 286 495 -4 25 -9 59 -11 75 -2 17 -4 30
-5 30 -2 0 -10 37 -14 70 -6 45 -25 162 -41 250 -3 17 -7 41 -9 55 -3 14 -17
99 -31 190 -15 90 -28 167 -30 170 -1 3 -6 30 -9 61 -4 31 -9 67 -12 80 -2 13
-11 65 -19 114 -8 50 -17 101 -20 115 -4 22 -55 330 -69 420 -3 19 -7 44 -9
55 -3 11 -7 36 -11 55 -13 74 -16 85 -32 120 -38 86 -52 107 -109 165 -99 101
-227 149 -391 147 -149 -2 -270 -53 -366 -153 -50 -52 -108 -131 -108 -147 0
-6 -4 -12 -8 -14 -8 -3 -89 -188 -98 -223 -1 -5 -8 -23 -15 -40 -6 -16 -13
-34 -15 -40 -1 -5 -32 -86 -69 -180 -36 -93 -82 -213 -101 -265 -20 -52 -40
-104 -45 -115 -5 -11 -17 -42 -28 -70 -26 -70 -44 -69 -70 2 -12 32 -25 67
-30 78 -11 25 -35 88 -37 95 -1 8 -15 43 -25 65 -8 19 -66 170 -176 460 -107
285 -203 419 -352 494 -93 48 -189 62 -316 49z"/>
<path d="M12208 13106 c-1 -2 -57 -6 -123 -9 -156 -7 -251 -26 -405 -79 -85
-29 -252 -113 -258 -129 -2 -5 -10 -9 -17 -9 -7 0 -15 -3 -17 -7 -1 -5 -25
-26 -53 -48 -200 -159 -346 -429 -372 -690 -9 -92 -8 -706 1 -770 4 -27 9 -61
11 -75 2 -14 6 -38 10 -55 4 -16 8 -34 9 -40 1 -5 4 -14 7 -20 5 -8 18 -50 23
-75 1 -3 14 -32 29 -65 102 -218 273 -389 505 -504 70 -35 175 -74 230 -86 12
-3 32 -7 45 -10 101 -25 225 -38 347 -38 87 -1 140 3 262 19 59 7 227 52 258
68 14 7 44 19 68 26 23 7 42 16 42 20 0 4 10 11 23 15 12 4 24 8 27 9 12 4 98
62 140 93 119 91 239 231 285 334 8 19 19 41 24 49 22 38 65 164 76 220 3 19
9 49 12 65 11 54 12 808 2 860 -28 141 -61 241 -114 341 -179 337 -532 548
-970 579 -44 4 -85 8 -92 10 -6 2 -13 2 -15 1z m89 -635 c50 -14 130 -66 171
-112 32 -35 81 -123 87 -156 2 -10 4 -18 5 -18 2 0 4 -9 15 -65 8 -38 14 -659
7 -674 -3 -5 -6 -23 -8 -40 -12 -137 -101 -274 -218 -333 -187 -95 -413 -22
-511 165 -58 111 -62 146 -62 516 0 245 3 352 12 387 7 27 13 50 13 52 1 1 6
16 12 32 46 127 156 227 277 253 50 11 148 8 200 -7z"/>
<path d="M18387 13104 c-1 -1 -49 -4 -107 -8 -102 -6 -137 -10 -190 -22 -14
-3 -36 -8 -50 -10 -14 -3 -43 -10 -65 -16 -49 -14 -46 -13 -67 -21 -24 -9 -47
-16 -53 -17 -15 0 -179 -89 -237 -127 -62 -42 -178 -148 -223 -204 -90 -113
-159 -251 -195 -389 -32 -123 -37 -192 -35 -566 3 -399 7 -443 61 -599 50
-144 127 -268 238 -379 39 -40 87 -83 106 -96 19 -13 37 -27 40 -31 8 -11 89
-56 167 -94 176 -85 388 -129 618 -128 87 0 132 3 245 18 177 23 390 105 539
209 73 52 214 197 262 271 68 104 131 251 145 335 3 14 7 31 9 38 14 40 20
176 20 487 0 410 -1 424 -59 620 -16 54 -78 174 -128 248 -38 56 -139 164
-201 215 -61 49 -254 160 -290 166 -7 1 -16 4 -22 8 -12 7 -154 50 -175 53 -8
1 -42 7 -75 13 -67 13 -271 32 -278 26z m102 -628 c49 -11 133 -61 172 -100
21 -23 39 -44 39 -48 0 -3 6 -13 13 -20 13 -14 53 -98 51 -108 -1 -3 3 -16 8
-30 5 -14 12 -41 14 -60 7 -58 6 -662 -1 -700 -12 -70 -27 -116 -56 -170 -69
-130 -177 -199 -321 -206 -117 -5 -218 36 -293 118 -56 62 -79 104 -113 213
-3 11 -7 182 -8 380 -3 392 1 429 57 535 49 92 160 181 247 196 15 3 28 7 30
9 5 5 132 -2 161 -9z"/>
<path d="M8770 13056 c-30 -7 -73 -21 -95 -31 -48 -24 -116 -90 -140 -136 -44
-85 -44 -82 -43 -1148 0 -983 1 -1018 20 -1076 11 -33 26 -67 34 -76 8 -8 14
-20 14 -25 1 -18 96 -85 150 -106 43 -17 80 -23 165 -25 196 -4 312 53 380
188 36 69 37 83 39 351 l2 247 56 53 c31 29 76 72 101 96 l45 42 62 -77 c81
-103 81 -104 110 -139 14 -17 36 -45 50 -64 14 -18 30 -38 35 -44 6 -6 34 -42
64 -80 29 -37 59 -75 67 -85 7 -9 47 -59 88 -111 42 -52 81 -102 89 -110 7 -8
29 -35 48 -60 37 -49 65 -77 105 -106 14 -10 31 -24 38 -29 19 -17 109 -54
141 -59 17 -2 32 -5 35 -6 3 -1 19 -2 35 -1 17 0 41 1 55 1 14 1 48 6 75 12
176 38 281 177 274 362 -2 60 -7 77 -38 146 -8 19 -15 37 -16 40 -1 15 -113
166 -222 300 -7 8 -120 150 -252 315 l-241 300 239 235 c131 129 260 255 285
279 40 38 102 116 104 131 0 3 3 12 6 20 27 80 27 149 0 255 -15 63 -87 151
-149 187 -122 68 -304 59 -436 -21 -17 -11 -106 -91 -197 -178 -91 -87 -188
-180 -217 -208 -29 -27 -137 -131 -240 -230 -103 -99 -190 -179 -193 -178 -3
2 -6 132 -7 290 -1 246 -4 296 -19 340 -10 29 -24 57 -32 64 -8 6 -14 17 -14
24 0 17 -66 72 -120 100 -88 44 -224 57 -340 31z"/>
<path d="M20138 13055 c-21 -7 -38 -11 -38 -9 0 2 -23 -8 -50 -23 -43 -23
-130 -101 -130 -116 0 -3 -8 -22 -17 -43 -9 -22 -19 -48 -22 -59 -9 -31 -7
-2076 2 -2110 4 -16 9 -34 10 -40 2 -5 15 -32 30 -60 31 -55 94 -108 154 -130
21 -7 47 -17 58 -21 49 -17 199 -19 259 -3 23 6 46 12 51 14 57 13 126 63 164
119 58 84 64 117 65 394 l1 254 70 65 c39 35 84 78 102 94 l32 30 43 -58 c24
-32 49 -64 56 -71 7 -8 25 -30 40 -50 15 -21 29 -39 32 -42 4 -3 33 -39 65
-80 33 -41 65 -82 72 -90 7 -8 88 -109 180 -225 91 -115 176 -219 189 -230 41
-38 64 -55 74 -55 6 0 10 -3 10 -8 0 -12 96 -51 145 -59 97 -15 212 4 303 51
39 20 85 68 120 126 26 43 27 52 27 171 0 113 -2 130 -25 175 -21 43 -95 160
-110 174 -3 3 -21 25 -40 50 -19 25 -39 50 -45 56 -5 6 -21 26 -35 44 -14 18
-30 38 -35 44 -6 6 -35 43 -65 81 -30 39 -57 72 -60 75 -3 3 -17 21 -32 42
-15 20 -33 42 -40 50 -7 7 -29 34 -48 58 -19 25 -38 47 -42 48 -4 2 -8 10 -8
17 0 7 -4 15 -8 17 -7 2 -69 77 -154 184 -6 8 27 47 99 117 233 229 373 364
422 411 113 106 149 233 110 380 -26 97 -90 176 -175 216 -65 30 -77 33 -169
36 -62 2 -95 -3 -145 -20 -86 -30 -129 -59 -226 -153 -107 -102 -438 -421
-523 -501 -36 -35 -96 -93 -133 -129 -38 -36 -69 -64 -69 -62 -1 2 -2 126 -4
274 -2 302 -6 337 -42 409 -43 84 -131 152 -223 171 -64 14 -233 14 -272 0z"/>
<path d="M3892 13019 c-46 -23 -105 -85 -130 -137 -11 -23 -20 -31 -31 -26
-47 21 -94 -6 -105 -62 -8 -36 22 -81 57 -86 19 -3 23 -11 28 -61 13 -114 61
-188 147 -224 130 -54 243 24 352 241 30 59 100 136 120 132 76 -13 104 -73
85 -181 -4 -22 -14 -53 -22 -70 -19 -38 -83 -105 -100 -105 -7 0 -13 -4 -13
-10 0 -5 -5 -10 -11 -10 -18 0 -38 -32 -39 -62 0 -39 9 -57 39 -72 63 -33 145
17 227 141 32 48 36 52 60 43 14 -6 31 -10 39 -10 24 0 54 35 61 72 5 32 2 41
-21 63 -16 14 -36 25 -46 25 -16 0 -19 8 -20 53 -1 72 -6 94 -34 153 -50 103
-191 156 -281 106 -76 -41 -108 -83 -200 -252 -11 -19 -25 -40 -31 -48 -7 -7
-13 -17 -13 -22 0 -5 -14 -18 -30 -30 -40 -28 -80 -20 -104 21 -44 75 14 249
94 285 57 26 66 124 14 144 -35 14 -43 13 -92 -11z"/>
<path d="M5602 12993 c-11 -28 -17 -58 -28 -148 -7 -61 -15 -69 -62 -72 -20
-1 -75 -4 -120 -6 -85 -5 -99 -10 -102 -37 -10 -70 13 -77 208 -65 l53 3 -5
-42 c-3 -22 -8 -52 -11 -66 -3 -14 -8 -48 -11 -76 -5 -45 -2 -55 17 -72 16
-16 26 -19 40 -12 29 16 31 21 44 122 3 26 9 69 14 95 5 26 7 51 5 55 -3 5 10
8 28 9 18 1 51 2 73 4 22 1 61 3 87 4 39 1 48 5 54 24 14 39 13 47 -7 60 -17
13 -56 13 -182 4 l-38 -3 7 40 c3 23 8 50 10 61 22 112 14 145 -36 145 -21 0
-30 -7 -38 -27z"/>
<path d="M1365 12990 c-26 -17 -26 -19 -9 -28 15 -8 137 -22 227 -26 9 0 17
-3 17 -6 -1 -3 -41 -34 -90 -70 -64 -46 -89 -71 -90 -86 0 -27 25 -38 53 -22
34 18 211 148 225 166 6 9 12 19 12 22 0 15 -36 45 -55 47 -254 23 -259 23
-290 3z"/>
<path d="M6171 12928 c-6 -7 -23 -29 -38 -48 -16 -19 -42 -53 -58 -75 -16 -22
-32 -42 -36 -45 -18 -14 -18 -46 0 -57 20 -13 19 -15 122 110 l27 31 63 -127
c35 -70 69 -127 75 -127 6 0 17 6 24 14 9 12 0 42 -47 152 -70 164 -103 207
-132 172z"/>
<path d="M3285 12891 c-177 -76 -225 -199 -131 -337 l26 -39 -32 -27 -33 -27
21 -27 c30 -40 50 -51 72 -38 35 23 58 -4 172 -195 8 -14 20 -31 25 -37 6 -6
15 -20 22 -30 17 -26 85 -128 88 -132 5 -6 53 18 92 47 l42 31 -60 97 c-33 54
-93 150 -134 213 -82 128 -82 121 -3 174 l47 32 -18 34 c-27 52 -42 57 -82 29
-19 -13 -36 -27 -39 -30 -3 -4 -15 -9 -27 -13 -29 -9 -65 42 -71 103 -3 39 0
49 20 68 27 26 123 65 134 55 4 -4 -5 9 -20 30 -15 20 -32 38 -39 41 -7 2 -39
-7 -72 -22z"/>
<path d="M1823 12847 c-17 -18 -72 -87 -123 -155 -74 -98 -91 -127 -86 -146 7
-27 40 -40 65 -24 9 5 31 30 49 54 18 24 36 44 40 44 5 0 71 -47 148 -105 142
-107 176 -122 207 -90 9 8 14 23 12 32 -2 10 -4 21 -4 25 -1 4 -40 36 -88 72
-49 35 -116 86 -150 111 l-62 46 40 52 c38 51 49 90 29 102 -27 17 -49 11 -77
-18z"/>
<path d="M7070 12855 c-12 -11 -27 -12 -79 -5 -36 5 -68 7 -73 4 -10 -6 -11
-44 0 -45 4 0 16 -3 27 -5 31 -7 68 -13 88 -13 15 -1 18 -7 14 -37 -4 -25 -1
-37 9 -41 19 -7 44 15 44 37 0 10 7 20 15 24 16 6 17 6 21 -42 3 -43 9 -48 38
-34 26 12 39 59 23 89 -16 29 -78 83 -96 83 -9 0 -23 -7 -31 -15z"/>
<path d="M776 12838 c-24 -34 -26 -29 57 -128 7 -8 39 -50 71 -92 52 -69 60
-76 77 -65 18 11 18 44 -1 57 -27 19 -26 44 3 102 30 58 31 59 66 54 20 -3 41
-2 47 2 17 12 24 40 11 50 -9 7 -272 43 -309 42 -4 0 -14 -10 -22 -22z m127
-59 c48 -3 49 -6 14 -51 -14 -18 -37 -24 -37 -10 0 4 -11 19 -24 34 -22 22
-26 45 -6 33 3 -2 27 -5 53 -6z"/>
<path d="M1274 12825 c-3 -14 -1 -38 4 -53 47 -118 45 -184 -4 -196 -19 -5
-25 -12 -22 -29 5 -37 41 -33 83 9 36 35 37 38 32 93 -6 60 -8 71 -27 141 -17
64 -54 83 -66 35z"/>
<path d="M2838 12843 c-24 -6 -23 -53 1 -79 36 -39 33 -56 -14 -92 -38 -27
-43 -35 -36 -55 12 -31 45 -33 84 -3 19 14 38 26 43 26 5 -1 24 -21 42 -45 32
-44 46 -48 80 -22 9 7 9 13 1 23 -6 8 -8 14 -5 14 4 0 -4 15 -18 33 -32 42
-32 54 -1 69 14 6 25 15 25 20 0 4 7 8 16 8 11 0 14 8 12 33 -4 43 -37 48 -83
13 -18 -14 -37 -26 -42 -26 -4 0 -19 16 -32 36 -27 39 -48 52 -73 47z"/>
<path d="M479 12810 c-6 -99 -5 -110 18 -110 10 0 14 9 13 28 -3 42 -1 44 22
22 28 -26 38 -25 38 4 0 35 23 50 42 28 17 -20 6 -82 -15 -82 -8 0 -7 -4 3
-10 23 -15 26 -13 44 25 15 30 15 38 2 69 -8 19 -23 37 -35 41 -23 7 -56 -8
-69 -31 -7 -13 -11 -12 -26 10 -20 31 -36 33 -37 6z"/>
<path d="M4884 12772 c-6 -4 -17 -18 -23 -30 -11 -21 -7 -33 44 -117 31 -52
63 -99 71 -106 7 -6 11 -15 9 -20 -9 -14 42 -41 65 -34 33 11 24 51 -42 188
-55 114 -65 127 -87 127 -15 0 -31 -4 -37 -8z"/>
<path d="M6570 12698 c-33 -12 -70 -47 -83 -78 -16 -40 -9 -79 31 -168 36 -81
169 -84 231 -6 49 62 11 95 -47 42 -38 -34 -56 -39 -98 -25 -25 9 -57 75 -57
119 0 52 63 85 113 58 14 -7 23 -6 35 6 15 16 15 18 -3 37 -23 22 -83 30 -122
15z"/>
<path d="M6875 12672 c-5 -4 -11 -12 -12 -19 -4 -18 37 -104 52 -109 7 -3 31
6 54 20 22 14 46 26 51 26 20 0 6 43 -14 46 -21 3 -57 -13 -68 -30 -11 -16
-26 4 -31 38 -4 31 -15 41 -32 28z"/>
<path d="M7304 12649 c-3 -6 -8 -26 -10 -45 -4 -47 -10 -54 -45 -54 -40 0 -66
-15 -83 -48 -20 -40 5 -122 44 -145 35 -21 70 -22 96 -3 10 8 29 12 41 10 27
-7 36 19 29 76 -9 61 -15 110 -21 160 -7 52 -33 78 -51 49z m15 -164 c12 -46
4 -72 -24 -79 -37 -9 -54 3 -66 47 -9 36 -9 43 7 54 10 7 30 13 45 13 23 0 30
-6 38 -35z"/>
<path d="M642 12627 c-9 -13 -25 -47 -62 -134 -29 -67 -20 -82 70 -117 81 -32
130 -69 130 -98 0 -42 61 -63 68 -24 11 55 -46 123 -137 163 -31 14 -57 26
-59 28 -5 5 37 93 48 100 5 3 17 1 27 -5 10 -5 58 -28 108 -49 94 -42 119 -41
113 2 -3 23 -7 25 -113 73 -44 20 -94 42 -110 50 -44 21 -72 24 -83 11z"/>
<path d="M407 12603 c-4 -3 -7 -15 -7 -25 0 -10 -4 -18 -10 -18 -5 0 -14 -9
-20 -20 -17 -31 23 -66 73 -64 45 2 55 -9 25 -30 -16 -11 -25 -13 -35 -5 -14
12 -43 5 -43 -10 0 -9 25 -21 43 -21 4 1 15 -6 23 -15 17 -16 34 -12 34 9 0 7
9 21 20 31 18 16 18 20 4 46 -13 25 -20 29 -59 29 -24 0 -47 5 -51 12 -9 15
22 37 45 31 39 -10 34 22 -6 45 -26 14 -27 14 -36 5z"/>
<path d="M6010 12570 c-7 -4 -14 -23 -15 -41 -3 -30 -14 -177 -17 -219 -3 -41
3 -58 24 -63 35 -9 50 11 47 62 l-3 46 158 0 c156 0 159 0 169 23 20 44 -9 51
-213 55 l-95 2 2 45 c2 25 0 55 -2 66 -5 23 -35 36 -55 24z"/>
<path d="M2639 12541 c-22 -18 -23 -22 -12 -52 7 -18 11 -34 9 -37 -4 -3 -56
-6 -84 -3 -7 0 -11 5 -7 10 3 5 1 12 -5 16 -5 3 -10 16 -10 28 0 12 -9 28 -21
35 -17 11 -25 11 -46 -3 -25 -17 -25 -17 -7 -81 5 -19 2 -20 -39 -18 -73 4
-107 -45 -59 -83 9 -7 43 -13 78 -13 l61 0 17 -43 c23 -60 21 -64 -26 -62 -63
2 -95 -33 -69 -74 10 -15 29 -19 103 -20 47 -1 55 -8 64 -59 8 -42 50 -54 79
-22 15 17 16 24 7 46 -16 35 -17 34 33 34 33 0 45 -4 46 -15 1 -8 3 -19 4 -25
1 -5 3 -16 4 -23 0 -7 7 -22 15 -32 12 -16 17 -17 45 -6 33 14 37 25 22 64 -9
24 -8 25 40 29 59 6 95 38 78 70 -14 26 -43 35 -105 33 l-52 -1 -20 53 -20 53
38 0 c43 0 90 32 90 60 0 26 -38 49 -80 48 -86 -1 -87 -1 -95 40 -6 35 -30 72
-45 72 -4 0 -18 -9 -31 -19z m55 -234 c22 -59 21 -62 -26 -62 -41 0 -42 1 -65
53 l-23 52 49 0 c48 0 48 -1 65 -43z"/>
<path d="M1575 12430 c-99 -49 -139 -202 -77 -298 24 -39 38 -49 127 -92 91
-44 138 -48 200 -20 47 22 65 36 86 70 48 75 54 183 15 235 -19 24 -31 32 -46
28 -32 -8 -40 -33 -25 -77 19 -55 9 -99 -37 -151 -34 -40 -85 -41 -164 -5 -83
37 -103 60 -104 118 0 41 25 102 42 102 4 0 23 14 42 31 34 30 38 53 12 71
-17 12 -28 10 -71 -12z"/>
<path d="M963 12414 c-51 -25 -60 -93 -17 -131 15 -13 21 -24 14 -28 -5 -3
-16 -18 -24 -33 -18 -38 -3 -88 32 -106 24 -12 42 -13 104 -8 9 1 36 20 59 42
37 34 60 44 96 39 3 0 11 7 16 16 11 20 -5 35 -37 35 -14 0 -17 5 -13 21 12
45 -18 66 -41 28 -9 -15 -19 -18 -35 -13 -30 9 -29 7 -13 45 33 81 -52 137
-141 93z m82 -62 c12 -8 12 -19 1 -44 -10 -23 -29 -23 -50 1 -16 17 -16 20 -1
35 18 17 34 20 50 8z m48 -141 c12 -12 -2 -38 -29 -56 -22 -14 -25 -14 -44 5
-20 20 -18 47 4 63 12 8 56 0 69 -12z"/>
<path d="M5067 12418 c-37 -29 -25 -101 15 -94 52 9 77 37 69 76 -6 30 -54 40
-84 18z"/>
<path d="M7059 12420 c-9 -5 -25 -11 -35 -13 -11 -1 -23 -5 -29 -8 -8 -5 -106
-40 -125 -44 -20 -5 -59 -25 -64 -33 -3 -6 2 -20 12 -32 16 -20 19 -20 51 -7
31 13 39 13 68 -1 l32 -15 -18 -31 c-44 -73 -71 -134 -65 -149 8 -22 33 -29
48 -14 14 14 60 90 75 124 16 35 28 36 86 8 55 -28 88 -27 99 1 4 11 -20 27
-97 64 l-102 48 50 22 c28 12 58 29 68 37 16 15 16 17 1 35 -19 20 -31 22 -55
8z"/>
<path d="M4750 12373 c-39 -7 -76 -48 -124 -138 -10 -18 -122 -207 -325 -547
-41 -71 -78 -128 -82 -128 -4 0 -9 12 -12 28 -3 15 -12 52 -21 82 -16 53 -21
70 -30 108 -25 100 -78 264 -92 289 -39 67 -145 86 -204 37 -57 -48 -70 -120
-38 -203 5 -14 11 -33 13 -41 4 -15 63 -209 110 -360 97 -312 126 -406 129
-415 1 -5 11 -37 21 -70 10 -33 19 -62 20 -65 1 -3 7 -25 14 -50 16 -59 54
-116 88 -134 40 -20 113 -15 149 12 61 43 71 97 40 207 -2 6 -6 24 -11 40 -4
17 -10 35 -14 40 -3 6 -7 19 -8 29 -2 11 -10 39 -18 63 -21 60 -20 63 25 134
22 35 43 71 48 79 14 30 64 110 68 110 2 0 54 -35 115 -77 61 -43 118 -83 127
-88 34 -21 77 -50 82 -55 4 -5 143 -102 308 -216 41 -29 98 -26 147 7 31 22
48 54 50 99 2 23 -16 70 -26 70 -5 0 -9 6 -9 13 0 6 -24 28 -53 47 -28 19 -56
39 -62 43 -5 4 -55 39 -110 77 -55 38 -105 74 -112 79 -7 6 -16 11 -21 11 -5
0 -17 9 -27 20 -10 11 -24 20 -32 20 -7 0 -13 3 -13 8 0 4 -52 41 -115 82 -62
41 -114 81 -114 88 -1 10 183 325 209 357 4 6 22 38 39 71 52 103 39 188 -33
223 -42 21 -50 22 -96 14z"/>
<path d="M5730 12316 c-65 -16 -93 -61 -85 -136 12 -113 34 -146 106 -158 77
-13 143 38 143 109 -1 73 -50 185 -83 190 -3 0 -13 2 -21 3 -8 2 -35 -2 -60
-8z m67 -65 c11 -10 26 -39 33 -65 22 -78 -15 -130 -72 -102 -27 14 -45 47
-54 103 -5 34 -2 45 15 62 26 26 51 27 78 2z"/>
<path d="M284 12297 c-26 -13 -24 -12 -29 -36 -2 -13 1 -31 8 -41 9 -16 8 -22
-9 -37 -42 -36 -35 -71 17 -99 64 -33 138 6 122 65 -3 12 -1 21 6 21 22 0 26
2 42 16 20 18 18 57 -4 82 -27 30 -119 47 -153 29z m101 -47 c22 -24 13 -54
-15 -47 -13 3 -18 1 -14 -6 4 -7 -6 0 -21 15 -17 16 -26 32 -22 42 9 22 50 20
72 -4z m-35 -89 c15 -29 13 -31 -20 -31 -34 0 -52 26 -29 41 22 14 37 11 49
-10z"/>
<path d="M595 12263 c-53 -10 -88 -39 -112 -94 -9 -22 -8 -34 5 -61 31 -62
100 -71 157 -22 32 27 49 27 53 -2 2 -13 -10 -27 -37 -43 -47 -29 -67 -64 -46
-81 17 -14 43 -2 104 52 24 21 47 38 51 38 4 0 11 8 14 17 4 10 -5 33 -26 62
-52 75 -59 76 -117 22 -28 -27 -49 -38 -63 -36 -25 5 -24 4 -32 32 -8 25 20
46 64 48 44 3 48 5 52 23 8 28 -28 52 -67 45z"/>
<path d="M6657 12220 c-4 -14 9 -32 49 -67 30 -26 54 -53 54 -58 0 -12 -36
-45 -48 -45 -5 0 -18 10 -29 23 -34 38 -84 77 -98 77 -8 0 -17 -10 -21 -22 -5
-18 4 -31 51 -74 l58 -51 -24 -27 -25 -26 -44 37 c-25 21 -49 43 -53 50 -11
18 -54 16 -61 -3 -7 -19 118 -154 143 -154 19 0 221 199 221 217 0 20 -128
143 -149 143 -10 0 -21 -9 -24 -20z"/>
<path d="M7411 12222 c-7 -10 -22 -19 -34 -19 -33 -3 -64 -23 -76 -50 -14 -30
-14 -93 -1 -93 6 0 10 -8 10 -17 1 -24 44 -54 80 -55 17 -1 41 9 60 26 34 28
50 27 50 -4 0 -22 -31 -42 -63 -40 -45 4 -65 0 -71 -16 -8 -22 50 -45 84 -33
64 24 73 33 86 93 7 29 -82 226 -101 226 -6 0 -16 -8 -24 -18z m19 -118 c13
-32 -2 -62 -35 -70 -44 -11 -82 40 -62 83 19 41 80 33 97 -13z"/>
<path d="M6306 12124 c-9 -9 -16 -33 -17 -57 0 -39 -4 -80 -14 -167 -2 -19 -4
-41 -4 -49 -1 -8 -14 4 -31 25 -16 22 -33 44 -38 49 -4 6 -19 26 -32 45 -69
98 -102 122 -117 84 -9 -23 11 -58 80 -143 34 -42 69 -85 77 -95 41 -52 57
-64 84 -59 24 5 47 31 52 58 2 10 14 178 19 260 4 60 -25 84 -59 49z"/>
<path d="M5211 12103 c-27 -25 -37 -51 -40 -102 -1 -12 -4 -12 -13 -3 -18 18
-25 15 -36 -15 -12 -35 -13 -68 -2 -97 7 -19 5 -22 -13 -22 -13 1 -21 -4 -19
-12 1 -6 3 -28 5 -47 1 -19 5 -35 8 -35 4 0 10 -7 13 -15 9 -24 -65 -12 -120
19 -45 25 -45 25 -38 3 31 -97 157 -209 264 -232 64 -15 153 -12 202 6 26 9
49 14 52 11 4 -3 6 0 6 6 0 7 4 12 10 12 12 0 40 22 91 72 21 21 51 40 66 43
16 3 35 8 43 10 8 2 17 4 20 5 3 0 -3 7 -12 14 -16 12 -16 14 7 24 33 15 32
27 -5 42 -17 7 -39 29 -52 53 -29 53 -86 86 -136 80 -21 -2 -57 -18 -81 -34
l-44 -31 -24 29 c-41 47 -71 105 -87 167 -9 33 -20 64 -25 69 -5 5 -22 -3 -40
-20z"/>
<path d="M7065 12109 c-92 -24 -110 -35 -129 -78 -17 -40 -15 -113 4 -136 7
-8 9 -15 5 -15 -4 0 8 -13 26 -30 48 -42 102 -41 220 7 64 26 86 109 50 188
-34 75 -75 90 -176 64z m93 -63 c22 -7 39 -36 48 -80 5 -27 -43 -67 -98 -81
-58 -15 -100 0 -122 43 -14 26 -13 32 2 62 13 26 28 38 66 50 53 17 67 18 104
6z"/>
<path d="M3131 12091 c-6 -4 -14 -19 -16 -32 -3 -13 -7 -33 -9 -44 -17 -74
-17 -83 -6 -90 15 -9 29 5 35 36 12 63 17 79 26 79 5 0 12 -7 15 -15 4 -8 10
-15 15 -15 9 0 38 -21 71 -53 11 -10 29 -17 41 -15 44 6 29 34 -50 90 -86 61
-104 70 -122 59z"/>
<path d="M2164 12029 c-89 -11 -137 -50 -132 -108 4 -48 24 -57 92 -41 50 12
60 11 95 -4 71 -33 101 -103 65 -154 -19 -28 -51 -41 -113 -48 -77 -9 -116
-22 -143 -51 -34 -36 -42 -76 -20 -102 28 -32 56 -34 86 -6 15 14 31 25 36 25
4 0 10 4 12 10 2 5 28 12 58 15 124 14 173 44 210 129 54 120 1 260 -117 312
-30 14 -58 22 -63 19 -4 -3 -10 -2 -12 3 -1 4 -26 5 -54 1z"/>
<path d="M1391 11972 c-28 -13 -51 -27 -51 -31 0 -4 -8 -16 -17 -27 -53 -60
-66 -145 -33 -220 26 -60 71 -96 153 -123 118 -38 179 -32 251 22 89 68 104
226 29 312 -21 24 -74 50 -146 72 -80 24 -129 23 -186 -5z m139 -84 c19 -7 37
-13 40 -13 76 -15 110 -44 115 -97 6 -67 -46 -131 -109 -134 -16 -1 -49 5 -75
13 -44 14 -69 21 -82 22 -16 2 -48 40 -54 64 -13 50 3 95 44 125 44 32 72 36
121 20z"/>
<path d="M437 11970 c-3 -10 1 -24 9 -31 8 -6 14 -26 14 -43 0 -33 -14 -64
-23 -50 -4 7 -27 118 -27 131 0 2 -12 3 -26 3 -71 0 -109 -71 -76 -140 19 -39
77 -73 102 -60 8 4 17 8 20 8 17 1 58 23 72 38 21 24 17 103 -6 139 -20 30
-52 33 -59 5z m-67 -52 c1 -7 3 -31 6 -53 l6 -40 -21 19 c-21 19 -26 41 -15
70 7 19 24 21 24 4z"/>
<path d="M935 11980 c-22 -4 -60 -11 -84 -14 -24 -3 -46 -8 -48 -10 -9 -9 -11
-49 -3 -64 5 -9 23 -63 40 -118 32 -108 46 -123 94 -104 11 5 43 14 69 21 61
15 107 59 107 100 0 41 -17 69 -40 69 -21 0 -27 15 -10 25 20 13 11 63 -16 84
-28 22 -44 24 -109 11z m77 -59 c18 -3 -3 -38 -33 -53 -51 -26 -76 -23 -82 10
-6 32 -6 31 23 37 12 2 25 6 27 9 4 4 33 3 65 -3z m32 -107 c33 -32 16 -55
-53 -74 -49 -13 -49 -13 -61 28 -8 31 -8 32 38 46 62 18 58 18 76 0z"/>
<path d="M5947 11934 c-4 -4 -10 -29 -13 -56 -7 -48 -8 -50 -35 -46 -22 4 -29
1 -29 -13 0 -9 9 -19 21 -22 30 -8 18 -32 -17 -32 -36 -1 -39 -24 -6 -41 31
-15 57 -8 72 22 7 13 16 21 20 19 4 -2 12 7 19 22 8 18 9 28 2 33 -6 3 -10 30
-8 59 2 50 -9 72 -26 55z"/>
<path d="M2632 11860 c-26 -24 -27 -38 -7 -76 8 -16 15 -25 15 -21 0 4 8 3 18
-2 13 -7 28 -5 50 6 25 12 32 22 32 44 0 55 -68 86 -108 49z"/>
<path d="M7415 11789 c-25 -12 -55 -63 -55 -93 0 -26 33 -61 49 -52 5 4 14 -1
19 -10 5 -9 14 -15 20 -13 17 6 123 160 117 170 -10 15 -21 10 -35 -16 -13
-25 -14 -25 -34 -6 -27 25 -56 32 -81 20z m45 -64 c0 -29 -23 -48 -49 -40 -23
7 -22 26 3 54 22 24 46 17 46 -14z"/>
<path d="M6569 11753 c-38 -41 -50 -67 -51 -119 -1 -53 23 -93 66 -107 43 -14
82 9 127 74 47 69 51 72 74 55 17 -12 17 -17 5 -47 -7 -19 -30 -50 -50 -69
-30 -29 -36 -40 -29 -58 6 -16 15 -21 31 -18 13 3 26 5 29 5 19 3 61 60 73
102 17 56 7 108 -25 138 -47 43 -105 27 -154 -42 -57 -81 -76 -94 -89 -61 -13
35 31 114 65 114 6 0 9 12 7 28 -4 39 -45 42 -79 5z"/>
<path d="M556 11748 c-24 -34 -9 -50 37 -43 28 5 38 4 33 -4 -4 -6 0 -11 8
-11 21 0 20 12 -4 42 -27 35 -57 41 -74 16z"/>
<path d="M195 11724 c-61 -25 -82 -70 -65 -136 14 -50 58 -81 108 -75 44 6 72
16 72 27 0 17 -19 20 -45 6 -51 -27 -85 3 -85 73 1 54 13 73 57 88 25 9 36 8
55 -5 12 -9 26 -21 30 -26 13 -19 9 -46 -7 -46 -8 0 -15 8 -15 18 0 28 -20 43
-42 31 -10 -5 -18 -7 -18 -3 0 4 -9 -1 -20 -11 -11 -10 -20 -24 -20 -32 0 -16
5 -16 31 -3 16 9 19 7 19 -9 0 -11 -7 -24 -16 -29 -9 -5 -13 -12 -8 -15 5 -3
33 6 62 19 62 28 68 56 25 104 -32 34 -73 43 -118 24z"/>
<path d="M3123 11734 c-189 -41 -262 -76 -362 -174 -137 -136 -184 -347 -115
-515 9 -22 23 -56 31 -75 8 -19 18 -44 23 -55 5 -11 26 -60 46 -110 52 -130
122 -211 221 -260 29 -15 54 -26 55 -25 2 1 17 -4 33 -10 46 -18 64 -21 145
-22 103 -1 181 17 275 63 187 93 302 269 297 454 -1 33 -4 67 -5 75 -12 58
-22 90 -38 125 -10 22 -30 69 -45 105 -14 36 -31 76 -37 90 -6 14 -11 27 -12
30 0 3 -7 16 -15 30 -7 14 -13 27 -13 30 1 16 -52 82 -95 120 -90 80 -196 120
-329 124 -28 1 -55 1 -60 0z m130 -235 c115 -31 153 -89 263 -407 70 -201 -90
-398 -315 -388 -113 5 -183 58 -229 171 -122 302 -133 363 -85 463 56 118 235
197 366 161z"/>
<path d="M6992 11718 c-37 -37 0 -56 117 -59 105 -3 105 -3 1 -72 -98 -64 -93
-76 48 -118 68 -20 83 -36 41 -43 -8 -1 -45 -13 -84 -26 -65 -21 -84 -33 -85
-53 0 -14 44 -24 70 -17 247 76 257 81 246 123 -4 19 -18 28 -63 43 -32 10
-60 19 -63 19 -40 8 -70 18 -70 25 0 4 32 27 71 51 39 23 76 52 81 64 13 28
-5 64 -30 63 -9 0 -73 2 -143 6 -91 4 -128 3 -137 -6z"/>
<path d="M6316 11631 c-11 -12 -13 -33 -9 -87 l5 -71 -54 -2 c-29 -1 -65 -3
-80 -5 -40 -5 -46 3 -51 78 -6 78 -13 89 -53 84 l-29 -3 2 -183 c1 -189 6
-212 44 -212 31 0 46 35 43 100 -1 33 1 62 5 65 4 2 42 7 84 10 87 6 88 4 89
-83 0 -27 3 -55 8 -62 12 -20 59 -21 69 -2 11 21 3 340 -9 363 -13 24 -46 30
-64 10z"/>
<path d="M775 11569 c-28 -14 -65 -71 -69 -105 -7 -61 51 -115 89 -84 13 11
16 7 21 -20 12 -59 96 -73 131 -21 53 79 61 125 29 166 -24 30 -74 37 -102 14
-11 -9 -14 -8 -14 5 0 19 -35 56 -52 55 -7 0 -22 -5 -33 -10z m40 -59 c9 -27
-21 -72 -43 -68 -32 6 -9 87 25 88 6 0 15 -9 18 -20z m127 -46 c23 -50 -41
-127 -73 -88 -17 20 -2 81 24 99 29 21 36 19 49 -11z"/>
<path d="M1308 11516 c-71 -30 -108 -93 -115 -196 -15 -215 -21 -207 162 -210
296 -6 304 -5 319 15 10 14 11 26 4 44 -13 36 -25 41 -94 41 l-61 0 2 78 c2
126 -26 191 -95 221 -51 21 -83 23 -122 7z m121 -116 c24 -39 30 -186 8 -177
-8 3 -20 1 -27 -3 -8 -5 -18 -6 -24 -3 -5 4 -29 6 -53 6 l-43 -1 0 78 c0 68 3
80 25 104 36 38 89 37 114 -4z"/>
<path d="M7473 11512 c-6 -4 -16 -19 -22 -33 -8 -23 -6 -29 17 -48 33 -27 56
-27 81 0 22 24 22 41 -4 69 -18 20 -50 26 -72 12z m45 -39 c-2 -10 -14 -19
-26 -21 -21 -3 -22 -1 -12 17 13 26 43 28 38 4z"/>
<path d="M5704 11468 c-62 -16 -66 -27 -81 -273 -13 -218 -12 -226 46 -227 56
-2 67 18 96 187 16 91 26 144 30 165 10 50 13 89 9 107 -8 28 -63 51 -100 41z"/>
<path d="M468 11444 c-2 -2 -29 -6 -59 -9 -98 -11 -110 -13 -124 -25 -10 -8
-12 -17 -6 -29 6 -10 5 -24 -1 -35 -14 -25 16 -90 48 -105 45 -20 107 -9 141
25 19 18 26 93 11 111 -8 10 -6 13 8 13 41 0 65 -39 42 -67 -6 -7 -7 -13 -3
-13 4 0 2 -7 -5 -16 -11 -12 -10 -18 3 -32 16 -15 18 -15 38 4 50 50 10 164
-63 178 -14 2 -28 3 -30 0z m-38 -74 c17 -17 18 -24 8 -45 -6 -14 -14 -25 -17
-26 -3 0 -14 -2 -25 -4 -31 -6 -66 13 -66 35 0 58 59 81 100 40z"/>
<path d="M1904 11438 c-54 -26 -56 -106 -3 -134 75 -38 144 70 83 130 -17 18
-49 20 -80 4z"/>
<path d="M2400 11401 c-14 -4 -34 -21 -46 -39 l-22 -31 -22 19 c-28 24 -33 24
-70 5 -37 -19 -50 -43 -50 -95 0 -53 22 -96 60 -115 27 -14 32 -14 55 1 14 9
25 23 25 30 0 20 8 17 34 -12 31 -37 72 -35 108 5 15 17 28 41 29 54 0 12 2
30 4 40 5 25 -14 89 -33 110 -24 27 -44 35 -72 28z m30 -83 c11 -12 21 -29 22
-37 0 -9 2 -23 3 -31 2 -23 -14 -50 -30 -50 -43 0 -70 74 -45 121 14 25 25 24
50 -3z m-133 -41 c10 -22 2 -60 -14 -70 -16 -10 -34 10 -39 42 -9 56 31 77 53
28z"/>
<path d="M7415 11382 c-22 -2 -44 -7 -48 -11 -14 -14 23 -41 46 -36 12 3 64 7
115 9 51 2 96 7 99 10 3 3 3 12 0 20 -6 15 -82 18 -212 8z"/>
<path d="M7465 11300 c-35 -38 7 -99 59 -86 13 3 28 17 34 30 9 20 7 29 -9 50
-24 31 -59 33 -84 6z m55 -18 c0 -5 -6 -16 -13 -27 -16 -20 -33 -5 -23 20 6
16 36 21 36 7z"/>
<path d="M6647 11304 c-3 -3 10 -31 30 -60 l36 -55 -41 -41 c-32 -31 -39 -44
-31 -54 8 -10 20 -7 57 17 25 16 50 29 55 29 6 0 30 -19 55 -41 34 -32 46 -38
53 -28 5 9 -4 30 -27 61 -19 26 -34 50 -34 52 0 2 14 20 30 41 29 36 40 75 21
75 -5 0 -14 -7 -21 -15 -7 -8 -16 -12 -21 -9 -5 3 -9 2 -9 -3 0 -4 -12 -16
-25 -26 -24 -17 -25 -17 -62 23 -37 38 -53 47 -66 34z"/>
<path d="M64 11236 c-17 -8 -39 -24 -48 -37 -20 -29 -20 -87 -1 -113 8 -10 12
-22 10 -26 -7 -11 39 -50 66 -55 68 -13 172 77 120 105 -15 7 -25 3 -50 -20
-41 -40 -75 -39 -95 2 -33 66 -10 102 61 96 46 -4 68 23 38 46 -25 19 -60 19
-101 2z"/>
<path d="M7064 11240 c-24 -5 -28 -10 -26 -30 1 -13 4 -26 7 -28 2 -3 59 -5
127 -6 l123 -1 1 -72 2 -73 -123 0 c-132 0 -157 -9 -137 -47 9 -16 25 -18 149
-17 76 0 144 4 151 8 8 5 12 45 12 132 0 102 -3 126 -15 130 -20 8 -233 11
-271 4z"/>
<path d="M950 11174 c-96 -26 -132 -88 -81 -141 22 -23 26 -34 20 -60 -3 -18
-2 -36 4 -42 6 -6 13 -30 16 -53 6 -40 8 -43 36 -42 28 0 76 7 120 18 11 2 25
5 31 5 7 1 15 9 18 18 10 24 -20 44 -48 33 -76 -28 -129 -16 -124 28 2 21 11
30 42 40 21 7 50 13 63 14 27 3 48 31 37 49 -6 11 -22 10 -112 -7 -38 -7 -62
8 -62 42 0 22 13 36 35 40 34 6 95 26 100 33 9 15 -6 41 -24 40 -9 0 -41 -7
-71 -15z"/>
<path d="M6461 11122 c-71 -64 -100 -117 -96 -174 4 -46 39 -97 68 -100 60 -5
87 -3 87 6 0 5 3 7 6 3 3 -3 17 -2 31 4 21 8 50 1 71 -16 2 -2 -11 -29 -28
-61 -18 -31 -34 -71 -37 -88 -3 -17 -5 -33 -6 -36 -8 -36 55 -80 115 -80 34 0
93 30 115 59 48 60 69 157 47 209 -16 39 -51 55 -124 56 -30 1 -60 4 -67 9 -6
4 -12 31 -12 63 0 66 -17 98 -67 122 -28 13 -35 21 -31 39 8 44 -10 40 -72
-15z m53 -74 c71 -36 96 -98 56 -138 -22 -22 -53 -23 -100 -3 -50 21 -86 84
-68 119 23 43 58 50 112 22z m281 -243 c33 -32 31 -63 -6 -108 -45 -54 -97
-73 -148 -54 -61 23 -63 94 -3 150 33 30 46 35 95 36 28 1 45 -6 62 -24z"/>
<path d="M7493 11132 c-23 -25 -25 -71 -2 -98 13 -16 2 -18 -20 -5 -8 5 -16
26 -17 47 -4 45 -6 47 -29 30 -17 -12 -17 -17 -5 -47 15 -37 40 -66 61 -70 43
-8 174 34 163 52 -3 6 -7 27 -9 47 -4 69 -93 97 -142 44z m70 -31 c26 -10 40
-41 27 -61 -11 -18 -61 -8 -77 16 -12 19 -12 24 2 38 19 19 17 19 48 7z"/>
<path d="M368 11122 c-47 -10 -11 -59 37 -50 21 4 23 1 22 -44 -1 -39 4 -54
24 -73 48 -48 157 -35 181 22 14 36 17 72 6 79 -4 3 -5 11 -1 17 12 20 12 36
0 44 -12 8 -237 12 -269 5z m220 -65 c13 -10 16 -55 4 -74 -8 -12 -24 -16 -64
-14 -19 1 -29 8 -36 29 -21 62 41 101 96 59z"/>
<path d="M6054 11091 c-11 -10 -31 -24 -44 -31 -22 -12 -22 -14 -7 -25 16 -12
16 -13 -5 -18 -21 -6 -21 -7 -5 -25 9 -10 17 -26 17 -35 0 -19 56 -76 76 -78
8 -1 24 -2 37 -3 25 -3 57 20 57 41 0 13 -15 17 -60 15 -31 -2 -70 23 -70 45
0 13 3 14 12 5 7 -7 23 -12 36 -12 19 0 22 4 17 20 -4 11 -2 20 4 20 15 0 14
30 -1 31 -7 1 -24 1 -38 0 -24 -2 -24 -1 -6 14 21 16 54 12 71 -9 6 -7 20 -18
33 -25 19 -10 23 -9 28 4 23 59 -102 113 -152 66z m32 -79 c-10 -2 -22 0 -28
6 -6 6 0 7 19 4 21 -5 23 -7 9 -10z"/>
<path d="M1548 11056 c-12 -6 -22 -19 -24 -29 -3 -22 -10 -30 -29 -33 -7 -1
-31 -4 -52 -7 -21 -3 -69 -11 -108 -17 -38 -7 -80 -13 -93 -15 -12 -1 -25 -5
-29 -8 -10 -11 -4 -77 23 -244 7 -47 15 -48 174 -27 25 4 53 8 63 10 29 5 91
-24 102 -49 9 -19 18 -22 69 -23 70 0 100 18 86 54 -9 22 -22 26 -67 22 -13
-1 -24 5 -25 12 0 7 -2 24 -4 38 -1 14 -5 41 -9 60 -4 19 -8 46 -10 60 -1 14
-6 48 -9 76 l-7 52 35 6 c27 5 37 13 42 31 3 13 3 29 -1 35 -8 13 -98 10 -127
-4z m6 -225 c4 -35 8 -67 9 -71 3 -11 -13 -10 -43 2 -23 9 -65 7 -160 -8 -19
-3 -41 -7 -47 -9 -9 -3 -13 7 -14 28 0 18 -3 51 -5 75 -2 23 -1 42 3 43 5 0
17 2 28 4 11 2 60 9 110 15 49 6 92 13 94 16 9 8 18 -28 25 -95z"/>
<path d="M2033 11058 c-54 -14 -79 -71 -61 -137 19 -67 19 -69 -18 -81 -42
-14 -64 -44 -64 -88 0 -65 46 -105 107 -92 34 8 37 5 47 -50 9 -55 36 -178 51
-234 34 -128 134 -209 257 -208 66 0 68 1 136 22 52 16 118 71 124 104 6 28
-13 80 -33 92 -26 16 -84 12 -112 -8 -65 -46 -156 -28 -176 34 -6 18 -24 95
-40 170 l-29 137 22 7 c11 4 28 8 36 9 8 1 29 5 45 8 17 4 41 9 55 12 58 11
82 85 46 140 -22 33 -60 37 -158 16 -98 -20 -94 -22 -104 52 -8 67 -70 112
-131 95z"/>
<path d="M4712 10963 c-75 -36 -80 -91 -22 -263 4 -14 20 -70 35 -125 15 -55
30 -107 33 -115 3 -8 6 -19 7 -25 25 -107 72 -236 93 -252 25 -18 66 -16 93 6
29 23 29 70 -1 155 -11 33 -17 63 -13 67 35 33 238 189 247 189 6 0 34 -15 61
-33 28 -19 65 -39 83 -45 32 -11 36 -9 64 18 26 27 29 35 23 67 -7 37 -19 51
-65 75 -14 7 -27 15 -30 18 -3 3 -32 19 -65 37 -126 65 -150 78 -155 83 -3 3
-23 14 -45 26 -45 24 -131 71 -188 103 -49 27 -115 34 -155 14z m133 -167 c11
-7 61 -35 110 -61 50 -26 92 -49 93 -50 6 -5 -37 -45 -47 -45 -5 0 -11 -3 -13
-8 -5 -12 -98 -85 -102 -81 -2 2 -20 57 -40 122 -20 65 -38 123 -41 128 -9 14
18 11 40 -5z"/>
<path d="M7430 10941 c-18 -34 -11 -60 26 -96 33 -32 37 -34 56 -20 18 12 25
12 56 0 39 -17 72 -19 72 -6 0 14 -22 27 -67 40 -40 11 -42 13 -36 41 7 36 1
37 -27 8 -17 -18 -23 -20 -29 -9 -5 8 -8 21 -6 30 2 15 -11 31 -27 31 -4 0
-12 -9 -18 -19z"/>
<path d="M233 10912 c-50 -5 -83 -45 -83 -101 0 -26 6 -55 14 -66 17 -23 64
-22 114 2 33 16 37 22 38 56 0 20 -4 37 -10 37 -6 0 -6 4 2 12 7 7 8 17 1 29
-13 25 -38 35 -76 31z m24 -38 c26 -7 21 -24 -8 -24 -10 0 -19 -2 -19 -4 0 -2
-3 -11 -6 -19 -4 -11 2 -16 22 -19 34 -4 40 -32 9 -46 -37 -17 -69 6 -73 53
-5 54 21 73 75 59z"/>
<path d="M7048 10903 c-19 -5 -31 -33 -23 -54 3 -8 20 -23 38 -34 32 -21 33
-27 22 -85 -2 -8 -4 -27 -4 -41 -1 -22 -7 -28 -35 -33 -38 -7 -61 -29 -53 -49
9 -25 41 -25 122 0 44 13 87 26 95 28 8 3 38 10 65 18 l50 13 0 44 c0 44 0 44
-75 90 -124 77 -184 107 -202 103z m155 -149 c9 -4 17 -10 17 -14 0 -4 10 -10
22 -13 29 -8 24 -12 -40 -31 l-54 -15 6 42 c3 23 5 44 5 45 1 2 7 1 14 -2 6
-3 20 -9 30 -12z"/>
<path d="M5611 10889 c-34 -13 -50 -39 -47 -77 5 -65 93 -91 149 -44 27 24 23
86 -7 105 -32 21 -65 27 -95 16z"/>
<path d="M576 10789 c-35 -28 -47 -75 -30 -118 22 -54 -15 -82 -54 -43 -21 21
-22 46 -3 80 14 26 7 42 -18 42 -38 0 -51 -84 -22 -139 13 -24 60 -51 82 -47
8 2 37 7 64 11 57 10 64 12 68 15 1 1 15 4 31 6 49 8 69 23 62 47 -3 12 -6 41
-6 65 0 62 -41 102 -103 102 -30 0 -53 -7 -71 -21z m112 -57 c15 -20 16 -54 0
-70 -15 -15 -53 -16 -79 -2 -19 11 -26 54 -11 76 18 27 67 25 90 -4z"/>
<path d="M5952 10740 c-29 -47 4 -86 77 -92 21 -1 37 -11 49 -28 23 -35 43
-72 39 -76 -8 -8 -141 -64 -153 -64 -8 0 -14 -4 -14 -8 0 -5 -17 -14 -38 -20
-47 -14 -67 -48 -46 -77 8 -10 22 -20 31 -21 16 -3 154 51 237 92 16 8 30 13
31 12 8 -13 47 -80 63 -109 39 -71 47 -79 72 -79 15 0 31 9 38 21 14 22 10 36
-40 119 -11 19 -36 64 -56 100 -19 36 -39 71 -45 78 -12 15 3 15 58 1 125 -31
147 -31 159 4 17 47 0 59 -135 94 -68 18 -133 35 -144 37 -11 2 -39 9 -63 15
-80 22 -107 22 -120 1z"/>
<path d="M7378 10733 c-29 -7 -21 -38 12 -50 l30 -11 -21 -36 c-23 -40 -20
-62 16 -96 46 -44 134 -16 135 43 0 9 5 17 10 17 6 0 10 8 10 18 0 18 -37 44
-110 78 -19 9 -42 21 -50 28 -8 7 -23 11 -32 9z m136 -108 c14 -21 14 -26 -3
-47 -19 -22 -20 -22 -55 -5 -42 19 -43 25 -16 60 23 30 51 27 74 -8z"/>
<path d="M3921 10674 c-16 -20 -19 -37 -16 -83 1 -32 8 -74 13 -92 16 -51 39
-147 77 -314 3 -11 14 -58 26 -105 11 -47 22 -89 23 -95 54 -238 54 -237 91
-261 21 -14 30 -14 55 -4 49 20 53 66 20 200 -11 41 -22 90 -25 109 -3 19 -8
37 -10 41 -2 3 -6 17 -9 31 -16 74 -49 216 -54 229 -2 8 -6 22 -7 30 -2 8 -6
26 -10 40 -3 14 -8 34 -10 45 -13 55 -23 97 -29 120 -2 6 -6 27 -10 47 -10 45
-50 88 -82 88 -12 0 -32 -11 -43 -26z"/>
<path d="M996 10625 c-9 -9 -16 -19 -17 -23 0 -4 -2 -15 -4 -26 -5 -26 15 -65
37 -72 32 -10 87 5 99 27 14 28 3 85 -19 94 -39 16 -80 16 -96 0z m90 -46 c14
-24 -39 -47 -63 -28 -12 11 -7 39 11 51 11 7 41 -6 52 -23z"/>
<path d="M103 10583 c-26 -40 6 -92 57 -93 30 0 44 8 57 35 33 62 -75 117
-114 58z"/>
<path d="M838 10593 c-31 -7 -1 -44 98 -123 52 -41 104 -83 115 -92 22 -18 49
-14 49 8 0 7 -48 52 -107 100 -143 116 -136 111 -155 107z"/>
<path d="M1575 10553 c-22 -7 -47 -16 -55 -20 -8 -3 -17 -7 -20 -8 -34 -9
-103 -51 -123 -74 -69 -82 -54 -219 32 -301 51 -49 148 -70 201 -44 14 7 51
24 82 38 100 43 144 109 136 204 -7 75 -52 153 -106 181 -57 30 -106 38 -147
24z m107 -107 c44 -31 60 -99 36 -152 -14 -30 -137 -94 -181 -94 -56 0 -107
44 -115 100 -6 42 18 98 47 109 14 6 33 15 41 20 67 40 130 46 172 17z"/>
<path d="M315 10512 c-38 -5 -45 -16 -38 -66 3 -23 5 -60 5 -83 1 -44 18 -70
39 -58 6 4 9 18 6 31 -5 29 5 37 49 39 18 2 37 6 44 10 18 11 -7 32 -37 31
-42 -2 -62 10 -56 34 5 17 14 20 59 20 53 0 68 7 56 27 -8 12 -80 20 -127 15z"/>
<path d="M6983 10511 c-13 -8 -23 -50 -13 -56 4 -3 25 -7 46 -11 20 -3 47 -10
59 -14 22 -8 22 -9 6 -69 -8 -33 -21 -63 -27 -65 -7 -3 -35 1 -63 9 -44 11
-53 11 -66 -2 -17 -16 -20 -39 -6 -47 14 -9 243 -67 277 -71 26 -3 33 0 38 18
7 28 -8 44 -47 52 -66 13 -69 15 -62 43 8 41 16 75 19 92 2 8 9 14 17 12 109
-26 132 -22 127 23 -3 16 -22 24 -113 48 -164 41 -182 45 -192 38z"/>
<path d="M5580 10483 c-24 -8 -50 -23 -57 -32 -21 -27 -16 -75 12 -101 18 -17
22 -27 15 -40 -14 -26 -8 -60 10 -60 10 0 24 19 36 48 16 38 25 48 47 50 15 1
27 -3 27 -8 0 -19 2 -25 12 -37 14 -18 37 -16 45 3 3 8 -7 55 -23 104 -33 101
-37 104 -124 73z m73 -57 c3 -8 0 -19 -7 -25 -18 -15 -74 -23 -81 -11 -10 16
13 38 43 43 15 2 30 5 33 6 4 0 9 -5 12 -13z"/>
<path d="M4306 10450 c-117 -75 -137 -214 -43 -304 95 -91 205 -96 286 -15
101 102 85 245 -36 315 -69 41 -146 42 -207 4z m151 -108 c61 -33 63 -104 4
-149 -29 -21 -105 6 -135 48 -24 34 4 112 44 122 17 4 58 -6 87 -21z"/>
<path d="M7372 10431 c-49 -61 -50 -82 -7 -115 40 -31 54 -27 75 24 14 33 46
48 64 30 8 -8 2 -18 -24 -40 -19 -16 -40 -30 -47 -30 -6 0 -9 -8 -6 -19 12
-45 113 28 113 82 0 24 -44 67 -68 67 -24 0 -75 -46 -67 -60 8 -12 -5 -13 -24
-1 -11 7 -9 14 13 37 25 28 35 64 18 64 -5 0 -23 -17 -40 -39z"/>
<path d="M841 10432 c-45 -35 -19 -122 35 -122 83 0 116 79 52 124 -29 21 -60
20 -87 -2z m64 -24 c27 -12 32 -30 12 -46 -21 -18 -57 -3 -57 22 0 20 7 36 16
36 2 0 15 -5 29 -12z"/>
<path d="M6533 10427 c-45 -12 -84 -25 -88 -28 -3 -4 2 -39 11 -78 19 -77 32
-86 84 -56 65 37 148 -11 95 -55 -14 -12 -92 -16 -144 -9 -33 5 -37 -27 -6
-47 52 -34 159 -15 190 33 36 54 18 128 -37 152 -29 13 -55 9 -115 -15 -9 -4
-13 3 -13 19 0 20 6 26 32 31 91 18 108 26 108 51 0 30 -7 30 -117 2z"/>
<path d="M613 10343 c-18 -8 -34 -26 -39 -41 -9 -33 -6 -100 7 -123 16 -30 10
-47 -21 -58 -16 -5 -31 -8 -31 -5 -1 2 -2 7 -3 12 -11 43 -40 130 -48 140 -14
16 -35 15 -41 -2 -6 -14 26 -137 43 -168 6 -10 10 -24 10 -32 0 -19 19 -25 50
-15 158 47 206 61 210 61 18 0 40 22 40 41 0 28 -24 106 -43 144 -26 50 -85
70 -134 46z m84 -65 c11 -15 35 -109 30 -115 -10 -9 -67 -21 -71 -14 -3 4 -7
18 -10 32 -3 13 -9 36 -12 52 -10 45 38 79 63 45z"/>
<path d="M3617 10308 c-38 -19 -83 -68 -99 -107 -32 -79 3 -180 80 -232 117
-79 245 -42 303 88 28 61 27 100 -5 162 -49 94 -184 138 -279 89z m138 -114
c48 -26 62 -62 40 -107 -23 -50 -58 -60 -114 -34 -29 13 -48 31 -56 51 -15 35
-11 51 22 88 28 30 56 30 108 2z"/>
<path d="M5273 10317 c-13 -5 -28 -25 -35 -43 -9 -25 -18 -34 -35 -34 -17 0
-23 -6 -23 -21 0 -23 18 -60 33 -70 6 -4 -2 -36 -19 -80 -33 -85 -37 -127 -17
-165 14 -29 50 -64 65 -64 12 0 15 -1 47 -10 42 -12 70 -2 77 26 9 35 -12 54
-61 54 -47 0 -75 22 -69 55 6 37 52 150 60 150 5 -1 28 -4 52 -9 51 -9 74 5
70 43 -2 21 -12 29 -48 41 -37 12 -45 19 -42 35 2 11 8 25 12 30 11 14 -5 52
-27 63 -11 6 -26 6 -40 -1z"/>
<path d="M5821 10293 c-23 -16 -28 -55 -8 -75 7 -7 22 -25 34 -41 l21 -27 -50
-90 c-46 -82 -57 -95 -81 -91 -46 7 -90 2 -107 -14 -42 -38 -10 -85 62 -90 44
-3 215 -15 281 -19 20 -2 39 -5 42 -7 2 -3 27 -4 54 -3 51 3 100 26 102 50 1
8 2 20 3 27 1 6 -1 19 -5 28 -8 16 -216 279 -261 330 -29 33 -61 41 -87 22z
m229 -355 c0 -4 -17 -5 -37 -2 -95 13 -119 16 -131 16 -8 1 -5 13 10 37 11 20
28 48 37 62 l15 27 53 -67 c29 -36 53 -69 53 -73z"/>
<path d="M3163 10283 c-20 -8 -15 -47 8 -63 68 -48 87 -65 117 -102 41 -53 65
-131 57 -193 -3 -26 -9 -53 -13 -59 -3 -6 -7 -14 -7 -18 0 -20 -76 -93 -120
-116 -166 -86 -370 41 -368 228 1 70 5 100 15 100 4 0 8 6 8 14 0 19 72 92 97
98 27 7 60 -7 73 -32 10 -19 4 -29 -66 -94 -70 -66 -75 -75 -65 -94 11 -20 17
-23 37 -21 4 0 14 -17 24 -38 22 -49 86 -87 135 -80 70 10 142 74 149 136 7
63 -57 151 -110 151 -18 0 -24 6 -24 23 0 33 -33 81 -74 106 -162 101 -348
-100 -296 -320 19 -79 46 -126 109 -189 122 -123 302 -137 441 -35 153 112
182 310 69 475 -18 27 -35 47 -37 45 -2 -2 -16 9 -30 24 -54 54 -91 70 -129
54z m-15 -259 c45 -31 45 -95 0 -109 -10 -4 -18 -10 -18 -14 0 -15 -45 -28
-67 -20 -12 4 -29 19 -39 34 -14 21 -14 30 -4 55 7 17 19 30 26 30 8 0 14 4
14 8 0 9 37 30 55 31 6 1 21 -6 33 -15z"/>
<path d="M317 10214 c-3 -3 -11 -7 -19 -8 -73 -15 -90 -20 -95 -33 -9 -22 1
-24 53 -8 62 19 61 19 67 -7 8 -28 -7 -45 -46 -54 -40 -8 -57 -22 -51 -39 5
-11 12 -11 45 0 21 8 39 12 39 8 0 -3 7 0 16 8 13 10 17 10 24 0 16 -26 3 -44
-46 -63 -58 -23 -62 -27 -46 -37 7 -4 43 -1 78 8 65 15 66 15 60 46 -23 114
-60 198 -79 179z"/>
<path d="M1190 10170 c-9 -5 -15 -25 -15 -51 0 -33 6 -46 29 -64 16 -13 36
-21 45 -20 9 2 19 4 24 4 17 2 5 32 -17 41 -22 8 -39 35 -35 56 3 19 -1 44 -8
44 -5 0 -15 -5 -23 -10z"/>
<path d="M1825 10162 c-16 -10 -34 -21 -40 -25 -5 -5 -69 -43 -142 -86 -175
-103 -166 -94 -146 -144 9 -23 19 -44 23 -47 5 -4 81 -127 133 -215 15 -26 28
-35 49 -35 14 0 352 194 385 221 16 14 -3 66 -27 72 -20 5 -81 -24 -227 -109
-50 -30 -96 -54 -102 -54 -6 0 -11 -4 -11 -10 0 -5 -4 -10 -9 -10 -14 0 -127
193 -116 197 24 8 302 174 317 189 16 15 16 19 2 45 -17 33 -43 36 -89 11z"/>
<path d="M6211 10161 c-19 -12 -6 -46 63 -166 31 -53 56 -99 56 -101 0 -17 55
-74 71 -74 28 0 50 42 53 103 2 30 6 59 9 63 2 5 1 19 -4 32 -9 24 -33 29 -46
10 -7 -12 -9 -18 -16 -53 -7 -32 -16 -21 -71 79 -61 112 -80 129 -115 107z"/>
<path d="M7265 10144 c-28 -26 -28 -26 -15 -75 11 -40 38 -56 88 -54 34 2 67
35 66 65 -3 58 -31 88 -68 74 -9 -3 -16 -2 -16 3 0 17 -30 10 -55 -13z m105
-49 c0 -32 -17 -41 -25 -13 -18 63 -18 61 4 49 12 -7 21 -22 21 -36z m-65 -43
c-9 -9 -25 11 -25 32 0 37 14 40 22 4 3 -18 5 -34 3 -36z"/>
<path d="M1014 10122 c-95 -46 -112 -63 -89 -86 9 -9 19 -16 23 -17 11 -1 33
-6 92 -22 l55 -14 -50 -24 c-54 -26 -73 -62 -37 -71 23 -6 179 69 187 90 9 23
-23 50 -68 58 -23 4 -45 9 -49 10 -5 1 -17 2 -28 3 -33 2 -23 17 24 35 50 19
62 38 40 61 -9 8 -16 15 -18 15 -1 0 -38 -17 -82 -38z"/>
<path d="M6875 10118 c-5 -19 5 -42 43 -99 48 -73 72 -113 72 -122 0 -3 -34 8
-76 25 -90 34 -119 34 -119 -2 0 -21 8 -28 45 -41 25 -9 52 -18 60 -22 101
-40 163 -56 181 -47 29 16 23 38 -34 126 -62 93 -72 114 -54 114 7 0 17 -4 23
-9 9 -8 109 -44 129 -46 17 -2 35 17 35 36 0 17 -36 35 -145 69 -22 7 -45 17
-51 21 -6 5 -32 12 -57 15 -43 6 -46 5 -52 -18z"/>
<path d="M15265 10130 c-12 -20 6 -67 38 -98 79 -76 184 -75 262 3 18 17 38
74 31 90 -6 17 -32 20 -41 5 -3 -5 -8 -20 -10 -32 -8 -39 -51 -68 -102 -68
-66 0 -108 24 -127 71 -15 37 -38 50 -51 29z"/>
<path d="M526 9994 c-26 -25 -4 -54 42 -55 122 -3 159 -11 137 -27 -24 -17
-115 -132 -115 -145 0 -15 20 -27 45 -27 7 0 47 41 90 90 43 50 81 90 86 90
17 0 37 -31 32 -50 -3 -11 -1 -20 5 -20 6 0 17 -3 25 -6 23 -9 38 45 22 83
-13 30 -24 37 -77 49 -24 6 -32 7 -153 18 -38 4 -82 9 -97 11 -16 3 -33 -1
-42 -11z"/>
<path d="M8686 9925 c-9 -9 -16 -24 -17 -33 -1 -18 -1 -19 -18 -103 -6 -30
-14 -69 -17 -85 -2 -16 -7 -40 -9 -54 -3 -14 -8 -38 -11 -55 -2 -16 -7 -37 -9
-45 -3 -8 -7 -33 -10 -55 -3 -22 -10 -60 -15 -85 -19 -87 -19 -100 -3 -116 22
-21 40 -2 47 51 4 23 9 52 11 65 3 14 8 39 10 55 3 17 14 75 25 130 11 55 22
116 24 135 7 50 16 94 21 99 3 2 30 -50 61 -115 30 -65 71 -150 90 -188 19
-39 34 -74 34 -78 0 -5 10 -22 22 -38 39 -54 52 -43 124 108 36 75 84 176 107
224 23 48 44 84 48 80 3 -4 12 -36 19 -72 7 -36 18 -90 25 -120 8 -30 16 -71
19 -90 3 -19 8 -46 12 -60 3 -14 12 -56 20 -95 15 -75 36 -104 62 -83 10 9 12
26 8 66 -3 29 -8 57 -10 61 -3 4 -7 25 -10 46 -3 22 -10 63 -16 90 -12 57 -49
253 -57 305 -8 50 -21 70 -46 70 -17 0 -29 -14 -52 -63 -16 -34 -34 -65 -38
-68 -5 -3 -9 -10 -9 -15 -1 -15 -13 -41 -88 -199 l-73 -150 -15 35 c-9 19 -15
38 -14 43 1 4 -2 7 -7 7 -5 0 -14 15 -22 33 -14 35 -154 332 -168 357 -12 21
-36 24 -55 5z"/>
<path d="M9631 9931 c-52 -14 -112 -64 -145 -121 -29 -51 -30 -59 -32 -186 -2
-192 27 -263 130 -316 63 -32 114 -39 191 -25 110 20 184 90 202 192 13 73 9
233 -7 290 -16 56 -67 113 -132 146 -47 24 -150 34 -207 20z m195 -64 c50 -26
93 -74 104 -118 15 -54 11 -256 -5 -295 -46 -110 -200 -157 -322 -97 -46 23
-92 73 -97 107 -1 8 -4 17 -7 20 -11 12 -1 243 13 276 20 46 64 89 113 110 50
22 157 20 201 -3z"/>
<path d="M10955 9926 c-90 -33 -142 -93 -160 -182 -13 -67 -10 -252 5 -298 19
-58 65 -112 117 -137 61 -30 66 -31 138 -31 109 -1 203 58 243 151 19 45 24
256 7 323 -19 77 -96 156 -169 175 -41 11 -151 11 -181 -1z m210 -64 c87 -44
106 -89 106 -245 0 -147 0 -146 -38 -200 -88 -126 -314 -112 -383 23 -17 34
-19 56 -17 177 2 118 5 142 22 168 32 50 74 80 135 98 36 10 138 -1 175 -21z"/>
<path d="M394 9916 c-3 -8 0 -24 6 -36 14 -26 8 -34 -28 -35 -35 0 -40 -39 -4
-41 42 -3 42 -3 32 -30 -14 -35 -13 -44 6 -44 9 0 21 13 27 29 11 29 11 29 40
14 35 -18 57 -4 33 20 -9 8 -21 18 -28 21 -10 4 -9 7 2 15 49 32 55 40 40 51
-21 14 -36 12 -54 -5 -14 -14 -17 -12 -30 20 -16 36 -33 45 -42 21z"/>
<path d="M11553 9922 c-13 -2 -23 -11 -24 -20 0 -9 -1 -107 -2 -217 -3 -181
-5 -204 -24 -245 -30 -63 -58 -91 -96 -99 l-32 -7 -3 -92 c-2 -76 0 -92 12
-92 23 0 29 18 27 84 l-2 62 291 0 c257 0 290 -1 291 -15 1 -9 1 -40 0 -69 0
-39 4 -54 15 -59 9 -3 19 -1 23 6 6 9 7 113 2 169 -1 7 -16 12 -41 12 l-40 0
0 285 0 285 -23 5 c-37 10 -157 11 -157 2 0 -5 -5 -5 -11 -2 -13 9 -127 10
-135 2 -3 -3 -16 -2 -28 2 -11 4 -31 5 -43 3z m338 -66 c1 -6 2 -125 3 -263
l1 -253 -210 0 c-115 0 -205 4 -198 8 6 4 24 32 39 62 28 55 28 57 29 250 0
107 4 198 8 201 15 11 327 6 328 -5z"/>
<path d="M12194 9922 c-42 -8 -44 -22 -44 -328 0 -222 3 -294 13 -301 17 -12
434 -10 447 3 6 6 8 18 4 27 -5 15 -29 17 -208 17 l-201 0 0 120 c0 113 1 120
20 121 11 0 81 1 155 2 129 2 135 3 138 23 4 28 -7 30 -170 29 -89 0 -138 3
-139 10 0 5 -2 58 -3 116 l-1 105 194 1 c176 1 196 2 208 19 8 11 9 22 4 27
-5 5 -69 9 -143 8 -131 -2 -148 -2 -219 2 -20 1 -44 0 -55 -1z"/>
<path d="M14352 9918 c-9 -9 -12 -92 -12 -314 l0 -302 28 -9 c15 -5 81 -8 148
-7 133 2 186 19 237 72 70 74 68 201 -5 269 -54 51 -94 58 -349 63 -13 0 -16
16 -16 103 0 109 -9 147 -31 125z m330 -310 c23 -13 49 -36 56 -51 19 -40 17
-112 -5 -149 -32 -55 -73 -71 -197 -77 -169 -9 -152 -26 -153 153 l0 152 128
-2 c114 -2 132 -4 171 -26z"/>
<path d="M17053 9918 c-20 -33 -255 -566 -259 -590 -4 -20 0 -30 14 -37 24
-13 33 0 80 109 l33 76 174 0 174 -1 37 -83 c21 -46 44 -91 52 -98 20 -21 42
0 36 34 -5 29 -9 41 -42 112 -12 25 -48 106 -81 180 -32 74 -71 161 -85 192
-14 31 -26 61 -26 67 0 36 -88 68 -107 39z m107 -143 c15 -33 38 -87 51 -120
13 -33 31 -76 41 -95 9 -19 15 -36 14 -37 -7 -7 -123 -6 -134 1 -6 4 -12 3
-12 -2 0 -6 -14 -7 -35 -2 -19 4 -37 5 -39 1 -5 -8 -64 -6 -73 2 -2 3 9 35 26
72 17 36 31 68 31 70 0 2 21 47 46 102 27 57 49 92 52 83 3 -8 17 -42 32 -75z"/>
<path d="M18083 9922 c-23 -2 -46 -9 -52 -16 -11 -13 -18 -603 -7 -613 3 -4
107 -6 230 -7 205 -1 225 1 229 16 3 10 -1 22 -7 27 -7 6 -94 12 -207 13
l-194 3 0 118 c0 110 1 117 20 118 11 0 81 1 155 2 123 2 135 4 138 21 2 10
-1 22 -6 25 -6 4 -76 6 -156 6 -90 0 -147 4 -149 10 -2 5 -3 57 -3 115 l1 105
194 1 c177 1 195 2 208 19 11 16 11 20 -3 28 -17 10 -312 13 -321 3 -3 -3 -11
-2 -17 2 -6 4 -30 6 -53 4z"/>
<path d="M2283 9899 c-58 -29 -88 -98 -69 -156 6 -18 4 -22 -8 -17 -9 4 -19
-5 -30 -28 -25 -55 -24 -57 44 -84 36 -14 80 -33 99 -41 18 -8 39 -16 45 -17
6 -1 32 -12 58 -23 88 -40 93 -38 113 34 7 26 -9 36 -130 78 -114 40 -138 69
-109 127 27 52 67 47 249 -33 40 -17 46 -14 65 34 17 45 17 49 2 54 -9 3 -46
17 -82 30 -36 14 -81 31 -100 38 -66 25 -104 26 -147 4z"/>
<path d="M12693 9905 c-4 -11 31 -51 111 -127 104 -98 115 -113 104 -129 -28
-39 -132 -174 -138 -179 -3 -3 -29 -35 -58 -72 -54 -70 -66 -108 -34 -108 23
0 34 9 62 50 14 19 30 42 37 50 7 8 50 64 97 123 46 60 87 109 90 110 3 1 29
-20 58 -48 l53 -50 5 -83 c3 -46 2 -86 -2 -88 -3 -2 -1 -20 4 -39 9 -28 14
-32 28 -25 14 8 17 25 16 117 l-2 108 59 60 c50 52 60 58 68 43 5 -9 15 -23
22 -30 7 -7 26 -31 42 -53 17 -22 32 -42 35 -45 3 -3 37 -45 75 -95 81 -105
95 -118 112 -103 23 18 16 31 -65 133 -4 6 -37 48 -72 95 -36 46 -75 96 -87
110 -30 32 -29 38 10 72 103 93 195 191 190 204 -8 22 -30 17 -66 -18 -19 -18
-90 -85 -157 -148 -68 -63 -130 -123 -139 -132 -8 -10 -18 -18 -21 -18 -3 0
-5 69 -4 154 1 85 -2 160 -6 167 -5 6 -15 9 -23 6 -11 -4 -14 -35 -16 -163 0
-86 -2 -159 -4 -160 -2 -2 -57 47 -123 109 -65 63 -144 137 -174 165 -58 54
-77 62 -87 37z"/>
<path d="M13667 9903 c-7 -24 -8 -583 -1 -605 3 -10 11 -18 19 -18 20 0 23 23
22 163 -1 71 2 131 6 134 8 5 256 7 363 4 l32 -1 -2 -142 c-1 -106 2 -145 12
-155 8 -7 18 -11 23 -8 5 4 9 138 9 316 0 270 -2 310 -15 316 -9 3 -19 3 -22
0 -3 -4 -6 -66 -7 -139 l-1 -133 -188 0 c-103 0 -193 2 -200 5 -9 4 -12 43
-12 140 0 118 -2 135 -17 138 -9 2 -19 -5 -21 -15z"/>
<path d="M14957 9913 c-6 -11 -7 -594 -1 -615 4 -14 10 -16 23 -8 17 8 18 32
19 302 0 161 -2 301 -5 311 -4 17 -28 24 -36 10z"/>
<path d="M15189 9903 c-1 -10 -2 -150 -3 -311 -1 -269 0 -295 16 -303 13 -7
22 -4 35 9 36 37 63 72 63 81 0 5 4 11 8 13 5 2 26 28 48 58 21 30 41 57 44
60 3 3 23 30 45 60 22 30 43 60 48 65 4 6 36 48 70 94 l62 85 3 -262 2 -262
25 0 c14 0 25 3 26 8 7 47 3 600 -4 610 -18 24 -50 7 -87 -47 -22 -32 -238
-323 -255 -344 -8 -9 -15 -19 -15 -22 0 -5 -15 -24 -57 -74 l-22 -26 -2 60
c-1 33 0 65 1 70 1 6 2 17 2 25 -1 8 -1 51 -1 95 0 44 -1 96 -2 115 0 19 -1
42 0 50 2 24 1 63 -3 85 -4 26 -46 34 -47 8z"/>
<path d="M19219 9913 c-1 -5 -2 -141 -3 -303 -1 -251 1 -297 14 -310 20 -20
256 -20 315 0 122 40 177 162 124 275 -39 83 -112 112 -284 113 -64 1 -120 3
-122 6 -3 3 -5 47 -5 98 0 51 -2 101 -4 111 -5 17 -33 24 -35 10z m332 -299
c19 -9 42 -26 52 -37 21 -25 39 -87 33 -118 -3 -13 -5 -28 -5 -34 -2 -28 -63
-75 -117 -90 -28 -7 -243 -9 -251 -2 -7 8 -7 282 0 294 3 5 62 8 130 7 95 -2
132 -6 158 -20z"/>
<path d="M10189 9903 c-1 -5 -3 -96 -4 -203 -1 -107 -5 -206 -8 -220 -16 -79
-64 -141 -124 -161 -27 -9 -31 -14 -23 -28 16 -31 87 -7 133 44 28 31 66 120
69 162 2 21 8 41 13 45 7 5 7 8 0 8 -12 0 -13 189 -1 208 4 6 4 12 -1 12 -4 0
-8 21 -8 48 l1 47 169 0 170 0 0 -280 c0 -154 4 -286 8 -293 6 -9 13 -9 28 -2
18 10 19 24 19 300 0 160 -3 297 -6 305 -5 13 -39 15 -220 15 -118 0 -215 -3
-215 -7z"/>
<path d="M16279 9903 c-1 -5 -3 -101 -4 -214 -2 -205 -2 -206 -31 -264 -28
-57 -97 -121 -117 -108 -5 3 -7 -5 -5 -18 2 -20 8 -23 32 -21 16 2 38 12 49
23 12 10 24 19 28 19 3 0 18 17 32 39 44 66 55 123 55 296 1 88 1 171 1 185
l1 26 168 -2 c92 -1 170 -2 173 -3 3 0 5 -128 5 -283 l0 -283 22 -3 22 -3 -2
308 -3 308 -212 3 c-117 1 -214 -1 -214 -5z"/>
<path d="M17518 9898 c-3 -7 -6 -144 -6 -305 -1 -231 2 -294 12 -302 29 -24
34 14 34 269 0 140 1 266 1 280 l1 25 175 0 c172 0 207 7 191 34 -11 17 -402
15 -408 -1z"/>
<path d="M18617 9897 c-3 -8 -6 -146 -6 -306 0 -251 2 -293 15 -298 25 -9 29
4 30 100 1 51 2 97 3 103 1 8 39 12 114 13 125 1 138 3 189 24 74 31 119 104
113 184 -6 83 -25 116 -90 156 -48 29 -35 27 -216 34 -121 4 -147 2 -152 -10z
m330 -55 c79 -41 107 -112 71 -184 -36 -74 -93 -95 -253 -94 l-110 1 0 140
c-1 77 3 145 7 152 7 8 45 11 126 9 96 -2 124 -7 159 -24z"/>
<path d="M7337 9876 c-8 -8 -18 -32 -22 -53 -4 -21 -10 -32 -12 -25 -3 6 -13
12 -23 12 -10 0 -20 4 -22 9 -3 10 -21 14 -55 12 -53 -3 -105 -137 -68 -175
27 -26 50 -35 80 -30 15 3 33 0 39 -5 9 -7 17 -7 28 2 19 14 88 192 91 232 2
32 -14 42 -36 21z m-71 -91 c13 -8 20 -23 19 -37 -1 -13 -3 -30 -4 -38 -2 -27
-36 -41 -72 -28 -30 10 -31 13 -26 52 8 59 42 80 83 51z"/>
<path d="M1195 9856 c-54 -20 -76 -42 -82 -83 -4 -29 0 -44 16 -62 18 -20 30
-24 95 -25 82 -2 112 -16 96 -46 -15 -29 -61 -42 -108 -32 -32 8 -44 7 -53 -5
-18 -21 18 -53 65 -57 46 -5 117 18 141 44 17 19 26 69 18 101 -7 26 -57 42
-131 43 -49 1 -67 5 -75 18 -22 34 55 75 89 47 11 -9 20 -9 41 0 l26 12 -24
24 c-28 29 -71 36 -114 21z"/>
<path d="M5563 9853 c-3 -10 -8 -21 -10 -26 -3 -4 18 -29 46 -55 28 -27 51
-52 51 -55 0 -7 -23 -35 -69 -85 -76 -83 -72 -193 11 -255 76 -57 160 -44 235
37 82 88 123 144 123 164 0 22 -12 34 -110 114 -36 29 -70 57 -76 63 -7 5 -29
24 -49 40 -21 17 -49 40 -64 52 -32 28 -79 30 -88 6z m179 -215 c7 -7 30 -26
51 -41 42 -32 44 -40 20 -65 -10 -9 -27 -29 -38 -43 -12 -15 -35 -34 -52 -42
-29 -16 -33 -15 -64 6 -52 35 -50 69 7 140 51 61 55 64 76 45z"/>
<path d="M4733 9829 c-13 -4 -23 -14 -24 -21 0 -7 -3 -22 -5 -33 -3 -11 -6
-32 -9 -47 -14 -92 -114 -180 -221 -195 -36 -5 -48 -11 -57 -31 -10 -21 -8
-27 10 -42 47 -38 175 5 257 85 53 52 86 121 92 198 7 73 -7 101 -43 86z"/>
<path d="M4470 9821 c-60 -24 -80 -68 -57 -123 25 -60 108 -82 148 -39 21 22
32 71 24 104 -11 41 -76 74 -115 58z"/>
<path d="M4874 9819 c-3 -6 -7 -36 -9 -67 -3 -71 -12 -105 -41 -163 -30 -60
-86 -122 -143 -158 -55 -35 -158 -71 -203 -71 -18 0 -39 -4 -47 -9 -19 -12 -7
-57 17 -63 30 -8 183 34 236 66 47 27 156 129 156 145 0 4 9 18 20 30 34 40
64 149 74 268 1 18 -50 37 -60 22z"/>
<path d="M6748 9788 c-2 -13 4 -40 14 -61 35 -71 37 -82 21 -114 l-14 -31 -51
22 c-49 20 -50 20 -64 2 -12 -17 -12 -22 2 -38 9 -9 26 -20 38 -24 19 -6 100
-42 185 -82 44 -20 56 -12 97 68 46 90 38 138 -32 181 -34 21 -37 21 -70 5
l-34 -16 -25 55 c-17 40 -29 55 -44 55 -13 0 -21 -8 -23 -22z m193 -152 c8
-16 5 -33 -11 -69 -12 -26 -24 -46 -28 -43 -4 2 -24 11 -45 19 l-37 16 21 38
c31 55 37 61 65 61 16 0 29 -8 35 -22z"/>
<path d="M773 9727 c-68 -34 -125 -68 -128 -75 -8 -22 86 -202 106 -202 5 0
52 21 104 46 76 37 101 44 126 39 27 -6 30 -10 26 -34 -7 -37 -14 -61 -30
-106 -15 -43 -9 -42 -115 -30 -42 5 -53 3 -58 -10 -7 -17 7 -37 28 -41 18 -3
172 -46 176 -48 1 -2 -23 -20 -53 -41 -59 -40 -60 -42 -45 -65 13 -20 30 -20
62 2 14 10 31 18 37 18 6 0 11 4 11 10 0 5 11 12 25 16 14 3 25 9 25 13 0 3
27 22 60 40 63 37 68 46 47 75 -12 17 -15 17 -50 -3 -35 -20 -97 -20 -97 -1 0
4 11 40 23 79 20 62 22 79 14 118 -13 53 -38 73 -103 83 -38 6 -54 2 -119 -30
-51 -25 -78 -33 -83 -26 -4 6 -15 25 -24 41 l-17 31 95 49 c52 27 101 56 110
66 13 15 13 18 -1 33 -9 9 -19 16 -23 15 -4 0 -62 -28 -129 -62z"/>
<path d="M5078 9734 c-50 -26 -39 -96 17 -110 57 -14 103 57 61 94 -31 28 -49
31 -78 16z"/>
<path d="M5940 9741 c0 -8 11 -12 63 -26 4 -2 11 -3 16 -4 15 -2 72 -65 83
-91 6 -14 10 -39 9 -56 -1 -21 4 -34 14 -38 53 -20 10 148 -47 184 -51 32 -72
40 -104 40 -19 0 -34 -4 -34 -9z"/>
<path d="M6410 9698 c-25 -12 -47 -24 -50 -28 -3 -3 -23 -14 -45 -25 -54 -27
-76 -54 -62 -76 13 -21 28 -16 136 46 84 48 97 63 78 89 -11 15 -16 14 -57 -6z"/>
<path d="M3779 9672 c-30 -21 -92 -61 -137 -90 -102 -64 -113 -84 -81 -145 43
-80 157 -245 177 -256 29 -15 70 1 190 78 57 36 112 70 122 76 19 9 37 41 35
60 -3 22 -24 62 -39 74 -9 7 -16 18 -16 23 0 5 -17 35 -38 66 -21 32 -51 76
-66 99 -24 36 -49 52 -81 53 -5 0 -35 -17 -66 -38z m111 -202 c0 -26 -70 -144
-79 -133 -17 18 -101 132 -101 135 0 2 26 4 57 6 31 1 58 4 60 6 2 1 17 3 33
4 23 0 30 -4 30 -18z"/>
<path d="M483 9638 c-13 -6 -23 -19 -23 -30 0 -22 8 -23 32 -1 14 12 21 14 30
5 8 -8 7 -13 -8 -17 -37 -12 -49 -22 -50 -43 -2 -37 19 -46 76 -31 54 14 56
18 39 70 -19 56 -48 70 -96 47z m55 -80 c-7 -20 -48 -23 -48 -4 0 11 9 16 26
16 16 0 24 -5 22 -12z"/>
<path d="M6425 9565 c-44 -24 -87 -49 -95 -53 -8 -5 -16 -18 -18 -30 -5 -30
29 -37 69 -13 19 11 59 33 89 49 65 36 79 54 61 76 -8 9 -16 16 -20 16 -4 0
-42 -20 -86 -45z"/>
<path d="M1981 9572 c-32 -15 -48 -49 -37 -77 3 -9 20 -22 38 -29 27 -12 35
-12 55 1 28 19 39 57 25 87 -14 31 -43 37 -81 18z"/>
<path d="M3322 9553 c-12 -12 -25 -23 -27 -23 -3 0 -9 0 -15 0 -15 0 -12 -30
3 -30 6 -1 2 -6 -11 -14 -20 -11 -21 -14 -9 -25 8 -6 18 -23 21 -37 12 -46 65
-84 116 -84 23 0 50 26 50 48 0 14 -10 17 -50 17 -33 0 -55 6 -67 17 -22 23
-10 34 21 20 19 -8 27 -8 36 2 8 11 4 16 -21 25 -18 6 -30 14 -26 17 3 3 14 1
25 -5 15 -8 23 -7 31 3 15 18 4 26 -38 26 -27 0 -32 3 -21 10 25 16 62 11 87
-12 34 -32 55 -32 51 0 -4 34 -60 73 -102 70 -17 -1 -41 -13 -54 -25z"/>
<path d="M5264 9532 c-11 -9 -36 -28 -54 -42 -93 -69 -122 -109 -133 -179 -6
-37 15 -105 40 -133 65 -73 184 -57 287 37 21 19 39 35 41 35 2 0 20 -22 41
-50 42 -55 73 -64 98 -29 13 19 12 46 -4 59 -3 3 -22 25 -41 50 -79 101 -195
246 -206 257 -16 18 -44 16 -69 -5z m85 -158 c24 -31 39 -59 35 -64 -103 -95
-150 -112 -189 -67 -37 43 -29 71 37 132 34 30 64 55 67 54 3 0 26 -25 50 -55z"/>
<path d="M2105 9507 c-7 -12 -17 -34 -20 -49 -7 -26 -3 -29 41 -49 27 -11 92
-35 146 -53 53 -18 102 -37 110 -42 31 -24 56 -1 73 67 6 24 2 27 -67 51 -40
14 -117 42 -171 61 l-98 36 -14 -22z"/>
<path d="M2710 9474 c-19 -31 -57 -79 -83 -107 -55 -57 -68 -84 -72 -141 -6
-84 37 -156 116 -194 134 -65 284 34 282 188 -1 48 -41 140 -62 140 -17 0 -83
74 -106 121 -14 27 -29 49 -33 49 -4 0 -23 -26 -42 -56z m100 -122 c57 -57 87
-104 84 -132 -1 -8 -2 -25 -3 -38 0 -12 -16 -39 -35 -59 -32 -35 -37 -37 -96
-38 -58 0 -63 2 -96 37 -19 21 -35 47 -35 58 -1 11 -2 30 -3 43 -1 12 5 36 13
53 15 29 101 134 110 134 2 0 30 -26 61 -58z"/>
<path d="M1576 9495 c-59 -15 -107 -61 -110 -108 -3 -39 12 -104 31 -134 18
-27 79 -57 118 -58 68 -1 144 50 148 100 2 23 -3 30 -23 36 -15 4 -18 7 -8 8
32 2 34 61 3 107 -30 47 -92 66 -159 49z m60 -64 c7 -1 14 -7 17 -15 4 -11
-11 -20 -54 -35 -32 -11 -60 -18 -60 -15 -12 39 28 77 71 68 8 -1 20 -3 26 -3z
m67 -108 c-7 -2 -13 -10 -13 -18 0 -33 -82 -56 -115 -31 -23 16 -19 24 16 30
13 2 24 5 24 6 0 1 11 4 24 6 14 2 27 7 30 9 2 3 14 5 25 4 12 0 15 -3 9 -6z"/>
<path d="M7053 9442 c-6 -4 -12 -16 -14 -26 -3 -12 -28 -33 -64 -52 -65 -35
-73 -45 -51 -63 11 -9 24 -6 62 15 27 15 54 31 61 36 7 6 18 -1 32 -21 13 -19
27 -28 36 -24 17 6 20 39 5 48 -16 10 -12 22 10 28 15 4 22 -1 26 -19 6 -24
37 -33 49 -14 10 16 -24 76 -48 87 -12 6 -31 7 -42 3 -11 -4 -27 -4 -36 1 -8
4 -20 5 -26 1z"/>
<path d="M6065 9406 c-8 -6 -26 -42 -40 -80 -14 -38 -27 -71 -29 -74 -5 -4
-119 79 -124 91 -6 12 -39 8 -51 -7 -19 -22 -3 -44 83 -113 66 -53 85 -75 102
-117 22 -54 49 -71 70 -42 9 13 8 27 -8 68 l-19 51 22 61 c12 34 27 72 32 86
17 44 15 78 -4 83 -10 3 -25 0 -34 -7z"/>
<path d="M1286 9393 c-4 -11 -2 -32 3 -47 10 -25 9 -26 -22 -24 -26 3 -32 -1
-32 -17 0 -14 7 -19 28 -20 28 0 30 -4 20 -43 -3 -13 -3 -25 0 -28 9 -10 47
16 47 32 0 12 4 13 23 2 49 -27 75 -10 33 23 -33 26 -33 31 4 47 17 8 30 17
30 22 0 18 -42 21 -65 6 -24 -16 -25 -15 -25 3 0 10 -8 29 -19 42 -18 23 -18
23 -25 2z"/>
<path d="M595 9382 c-6 -4 -12 -16 -13 -27 -5 -27 -7 -28 -42 -27 -35 1 -40
-15 -7 -27 25 -9 44 -5 70 17 27 24 20 84 -8 64z"/>
<path d="M6405 9352 c-76 -15 -125 -75 -121 -149 3 -56 31 -85 108 -113 86
-31 129 -24 179 30 22 23 39 50 39 61 0 11 10 23 24 29 31 11 39 25 23 37 -14
11 -27 11 -44 0 -7 -4 -18 4 -29 21 -24 42 -134 93 -179 84z m98 -95 c25 -11
37 -27 19 -27 -5 0 -17 -6 -27 -14 -16 -11 -17 -17 -7 -29 8 -9 21 -13 34 -9
21 5 21 4 5 -18 -31 -45 -55 -50 -109 -25 -68 31 -87 51 -82 82 12 67 48 90
104 66 19 -9 47 -20 63 -26z"/>
<path d="M654 9338 c-4 -6 -8 -39 -10 -72 -1 -34 -2 -62 -3 -64 -1 -1 -16 14
-35 34 -32 34 -35 35 -45 17 -8 -16 -2 -30 40 -81 49 -61 77 -77 81 -47 1 16
6 83 7 115 1 18 5 16 33 -15 27 -32 33 -34 46 -22 12 13 11 19 -9 48 -26 35
-85 99 -93 99 -3 0 -8 -5 -12 -12z"/>
<path d="M4102 9309 c-64 -65 -51 -135 33 -181 73 -40 107 -44 148 -19 36 22
57 57 64 107 8 57 -73 103 -129 73 -23 -12 -60 -88 -50 -104 3 -5 -1 -4 -10 3
-9 7 -21 26 -26 42 -9 23 -7 31 8 45 10 9 27 18 37 19 10 2 18 11 18 22 0 14
-8 20 -31 22 -24 2 -38 -4 -62 -29z m194 -90 c33 -36 -33 -100 -71 -69 -19 16
-19 40 0 67 18 25 49 26 71 2z"/>
<path d="M3182 9291 c-60 -21 -103 -58 -128 -109 -21 -46 -21 -83 0 -157 2 -5
6 -23 11 -40 20 -75 63 -126 132 -156 86 -37 199 -2 257 79 l29 41 -18 63
c-24 82 -42 118 -59 118 -8 0 -44 -9 -80 -20 -77 -24 -95 -46 -67 -81 17 -21
22 -22 57 -11 43 13 50 9 59 -30 6 -23 2 -30 -27 -48 -71 -43 -145 -34 -174
22 -23 44 -44 118 -44 154 0 36 30 78 70 99 37 19 64 19 118 -2 42 -16 44 -15
63 4 60 60 -84 114 -199 74z"/>
<path d="M4848 9230 c-49 -26 -88 -46 -88 -43 0 2 -6 -1 -12 -7 -7 -6 -29 -19
-47 -29 -47 -24 -58 -43 -43 -75 15 -33 49 -34 100 -3 20 13 70 40 110 60 66
34 73 36 79 20 3 -10 15 -31 26 -47 23 -33 29 -27 -85 -86 -63 -33 -78 -45
-78 -64 0 -13 7 -29 15 -36 13 -11 31 -6 106 32 l90 46 29 -46 28 -45 -106
-55 c-59 -30 -115 -61 -124 -70 -26 -22 -23 -60 6 -74 21 -9 37 -5 113 33 48
23 90 46 93 50 3 3 16 10 30 14 39 12 89 48 94 68 4 18 -150 338 -166 345 -5
2 -8 12 -8 21 0 17 -39 42 -63 40 -7 -1 -51 -23 -99 -49z"/>
<path d="M2244 9136 c-86 -39 -135 -116 -114 -180 13 -41 29 -56 67 -61 15 -2
29 -4 30 -4 1 -1 -6 -20 -16 -44 -16 -38 -17 -47 -6 -75 28 -65 112 -77 203
-27 51 28 131 99 133 119 0 6 2 21 5 33 5 29 -8 62 -36 91 -18 19 -31 23 -65
20 -43 -3 -43 -3 -38 27 2 16 6 35 8 40 1 6 -8 23 -20 39 -18 23 -33 29 -71
33 -29 2 -62 -3 -80 -11z m74 -79 c31 -37 -37 -95 -104 -88 -25 2 -22 40 5 64
43 38 80 47 99 24z m123 -140 c17 -26 -7 -70 -54 -98 -40 -24 -46 -25 -75 -13
-35 14 -38 24 -20 57 32 61 124 94 149 54z"/>
<path d="M5723 9108 c-10 -13 -18 -40 -29 -103 -3 -16 -7 -36 -10 -44 -3 -8
-7 -38 -11 -68 -7 -64 -2 -65 81 -22 47 25 60 28 67 18 5 -8 9 -17 9 -21 0 -5
9 -8 20 -8 28 0 42 31 25 54 -12 15 -12 22 1 40 16 26 10 36 -22 36 -17 0 -28
12 -45 48 -36 77 -63 99 -86 70z m57 -144 c0 -6 -11 -16 -24 -22 -30 -14 -37
-1 -24 48 l10 34 19 -24 c10 -14 19 -30 19 -36z"/>
<path d="M6760 9104 c-40 -20 -68 -56 -74 -96 -5 -30 -3 -38 9 -38 9 0 23 17
33 38 22 47 37 63 62 65 11 1 20 5 20 9 0 14 60 -14 75 -35 34 -49 7 -125 -51
-143 -30 -10 -38 -8 -59 8 -15 12 -22 25 -18 35 6 14 9 13 24 -5 22 -27 31
-28 47 -1 28 45 18 75 -30 92 -19 6 -45 -11 -50 -33 -2 -8 -9 -20 -17 -26 -42
-32 -8 -103 50 -109 102 -9 173 114 118 203 -26 41 -94 58 -139 36z m67 -95
c16 -16 5 -39 -18 -39 -23 0 -45 36 -26 43 20 9 32 8 44 -4z"/>
<path d="M4537 9098 c-22 -16 -30 -57 -16 -75 7 -7 9 -13 6 -13 -3 0 1 -16 9
-35 8 -19 12 -36 9 -36 -12 -3 -21 -6 -35 -12 -8 -3 -38 -13 -66 -22 -64 -20
-107 -58 -133 -117 -11 -25 -18 -48 -16 -50 2 -2 7 -19 10 -37 8 -46 33 -77
81 -101 54 -27 109 -25 218 7 96 28 118 43 112 77 -17 83 -30 133 -38 142 -5
7 -8 16 -7 20 1 5 0 12 -1 17 -1 4 -3 10 -4 15 -4 14 -27 98 -42 149 -21 76
-49 98 -87 71z m56 -295 c29 -88 29 -100 -1 -108 -15 -4 -36 -9 -47 -12 -69
-18 -91 -15 -123 17 -26 26 -30 35 -22 51 6 10 8 19 5 19 -4 0 1 8 10 17 16
15 124 60 151 62 7 1 19 -20 27 -46z"/>
<path d="M1807 9088 c-9 -5 -17 -7 -17 -4 0 3 -18 -1 -40 -9 -22 -8 -40 -11
-40 -7 0 4 -5 -1 -10 -10 -11 -19 24 -174 44 -195 9 -10 22 -9 63 4 96 31 133
83 90 126 -13 13 -20 31 -19 47 4 38 -38 67 -71 48z m23 -59 c0 -12 -61 -39
-72 -33 -5 3 -8 12 -8 20 0 8 5 12 10 9 6 -3 10 -1 10 5 0 6 4 9 8 6 4 -2 14
-1 22 4 16 10 30 4 30 -11z m30 -74 c0 -16 -34 -37 -67 -42 -35 -5 -31 33 5
45 40 15 62 14 62 -3z"/>
<path d="M823 9074 c-34 -14 -58 -47 -48 -64 10 -16 30 -12 50 10 19 21 51 26
75 10 16 -10 15 -11 -27 -76 -12 -19 -12 -24 2 -38 20 -20 31 -14 50 27 9 18
22 43 29 56 13 21 12 27 -2 48 -27 43 -73 52 -129 27z"/>
<path d="M1402 9055 c-37 -33 -41 -39 -30 -58 6 -12 18 -29 27 -37 9 -8 50
-53 91 -100 41 -46 88 -99 104 -117 16 -18 37 -33 46 -33 22 0 90 61 90 82 0
32 -52 33 -64 1 -5 -13 -10 -12 -27 8 -11 13 -35 40 -53 59 -136 148 -139 153
-123 165 9 7 18 23 19 36 5 38 -31 35 -80 -6z"/>
<path d="M1111 9035 c-55 -18 -79 -79 -51 -130 28 -50 84 -66 143 -40 14 6 17
2 17 -19 0 -18 -6 -26 -17 -27 -10 -1 -25 -3 -33 -4 -8 -1 -29 -3 -46 -4 -38
-1 -54 -29 -28 -48 9 -7 21 -10 26 -7 5 3 32 8 61 11 88 9 98 16 93 65 -2 24
-5 55 -5 69 -1 34 -30 42 -77 23 -30 -13 -38 -13 -64 1 -32 17 -36 26 -20 56
9 16 18 18 53 13 23 -4 50 -13 59 -22 19 -16 48 -10 48 10 -2 49 -87 78 -159
53z"/>
<path d="M5364 9018 c-24 -11 -44 -48 -44 -79 0 -53 53 -91 115 -83 21 2 42 7
46 10 15 9 10 -9 -10 -43 -25 -41 -53 -49 -91 -27 -21 13 -33 15 -40 8 -31
-31 48 -77 109 -63 20 4 48 21 64 39 27 30 29 42 29 142 0 41 -25 81 -60 97
-29 14 -90 13 -118 -1z m97 -44 c21 -25 19 -43 -4 -56 -37 -20 -97 -2 -97 31
0 36 76 55 101 25z"/>
<path d="M6132 8989 c-47 -35 -74 -42 -107 -29 -17 7 -27 5 -36 -7 -11 -13
-10 -18 10 -34 13 -11 36 -19 53 -19 33 0 87 25 105 49 11 14 14 14 33 -5 23
-23 21 -64 -3 -64 -7 0 -33 -18 -59 -40 -46 -40 -53 -62 -22 -74 18 -7 172 84
177 104 4 18 -67 126 -92 139 -14 8 -27 4 -59 -20z"/>
<path d="M4152 8973 c-7 -15 -13 -37 -15 -48 -6 -45 -20 -52 -100 -60 -43 -3
-88 -8 -101 -11 -18 -3 -27 6 -51 51 -17 30 -36 57 -43 60 -23 8 -62 -6 -63
-24 0 -9 -2 -23 -4 -32 -3 -17 6 -37 95 -204 35 -66 73 -138 84 -159 22 -41
68 -68 104 -61 47 9 60 28 102 159 23 72 53 164 66 204 26 78 30 127 13 138
-6 3 -26 8 -44 11 -28 4 -34 0 -43 -24z m-62 -199 c0 -9 -53 -150 -59 -156 -6
-7 -81 129 -81 145 0 3 19 7 43 9 60 4 97 5 97 2z"/>
<path d="M898 8886 c-15 -11 -15 -16 -5 -30 14 -19 42 -13 51 10 8 20 -26 35
-46 20z"/>
<path d="M2796 8869 c-13 -20 -12 -27 22 -93 20 -39 39 -73 42 -76 12 -12 31
-52 27 -57 -4 -4 -60 27 -137 76 -14 8 -27 16 -30 16 -3 0 -11 4 -18 8 -18 12
-49 -1 -55 -23 -5 -18 16 -65 78 -176 14 -24 25 -47 25 -50 0 -3 -17 4 -37 17
-21 12 -49 28 -63 36 -109 61 -113 63 -127 52 -23 -20 -14 -43 25 -61 20 -9
73 -37 117 -62 108 -62 117 -65 137 -55 35 19 32 53 -14 141 -23 46 -47 86
-53 90 -6 5 -5 8 2 8 7 0 54 -23 104 -51 88 -48 92 -49 115 -34 33 22 28 48
-31 155 -25 47 -53 102 -62 123 -18 42 -44 48 -67 16z"/>
<path d="M6423 8883 c-19 -7 -16 -37 7 -66 17 -21 18 -30 9 -51 l-12 -25 -29
22 c-25 18 -30 19 -38 7 -6 -10 -3 -26 11 -48 14 -25 18 -43 13 -68 -5 -26 -3
-34 9 -34 8 0 20 7 27 15 11 14 15 13 27 -5 11 -16 12 -24 3 -35 -6 -8 -9 -24
-5 -35 6 -20 8 -20 29 -6 21 13 25 13 47 -9 16 -17 29 -22 38 -16 11 7 10 17
-9 54 -21 41 -21 47 -7 67 14 20 16 20 25 4 12 -21 40 -12 38 13 -1 10 -10 30
-20 46 -15 22 -16 30 -6 42 15 18 6 45 -14 45 -7 0 -17 -8 -20 -17 -6 -14 -9
-13 -23 7 -12 17 -13 27 -6 40 7 11 8 22 1 34 -9 16 -11 17 -29 0 -18 -16 -20
-16 -36 4 -10 11 -24 18 -30 15z m92 -163 c7 -21 -10 -60 -25 -60 -16 0 -23
49 -10 65 17 20 27 19 35 -5z"/>
<path d="M1891 8769 c-53 -23 -67 -38 -75 -75 -5 -22 -2 -37 13 -56 l20 -25
-25 -12 c-14 -6 -31 -11 -38 -11 -8 0 -16 -9 -19 -20 -7 -28 19 -40 57 -27 17
6 31 7 33 1 12 -35 46 -74 65 -76 63 -4 139 25 153 59 14 34 14 67 -1 87 -20
29 -18 34 20 41 23 5 36 14 40 28 3 12 4 23 2 25 -6 6 -40 5 -66 -2 -23 -6
-27 -3 -38 28 -19 52 -74 65 -141 35z m68 -48 c8 -5 16 -20 18 -34 3 -21 -3
-26 -44 -39 -67 -22 -98 7 -55 51 27 29 57 37 81 22z m70 -125 c7 -8 9 -25 5
-40 -5 -19 -16 -28 -45 -36 -48 -13 -77 -1 -75 32 1 17 12 27 46 40 56 21 55
21 69 4z"/>
<path d="M3515 8766 c-112 -41 -116 -44 -109 -85 3 -20 10 -50 15 -67 5 -17
12 -41 14 -53 2 -13 7 -31 10 -42 4 -10 8 -31 10 -47 2 -15 4 -28 6 -29 1 -2
2 -6 3 -10 1 -5 6 -23 10 -41 9 -39 37 -57 65 -42 28 14 33 42 17 81 -15 36
-10 58 15 63 8 2 27 8 42 14 16 7 31 12 34 12 13 0 73 52 84 71 28 54 21 112
-20 158 -40 45 -102 50 -196 17z m126 -66 c20 -11 26 -63 11 -87 -6 -10 -111
-53 -128 -53 -4 0 -27 82 -28 100 -1 9 16 22 39 30 51 20 81 23 106 10z"/>
<path d="M1373 8733 c-17 -23 -23 -26 -35 -15 -16 13 -48 7 -48 -9 0 -6 7 -20
15 -33 14 -21 13 -24 -4 -40 -12 -11 -21 -14 -26 -7 -9 16 -45 13 -45 -4 0 -8
6 -20 13 -27 12 -10 10 -15 -7 -30 -20 -16 -20 -18 -4 -34 16 -16 18 -16 42 0
14 9 26 21 26 26 0 17 26 11 45 -10 18 -20 18 -21 0 -34 -21 -15 -14 -46 9
-46 8 0 26 12 39 26 20 21 28 24 44 16 30 -16 49 1 36 31 -9 20 -8 29 4 47 11
15 18 19 26 11 13 -13 44 -14 52 -2 3 5 -2 16 -11 25 -14 14 -14 18 0 38 11
16 13 25 4 35 -16 20 -34 16 -52 -12 -19 -28 -34 -31 -61 -11 -18 13 -18 15
-2 39 16 25 16 27 -2 37 -29 15 -35 13 -58 -17z m32 -99 c16 -11 17 -18 8 -32
-21 -33 -72 -8 -54 27 14 25 19 25 46 5z"/>
<path d="M5843 8742 c-31 -23 -37 -78 -11 -96 19 -13 19 -16 3 -39 -20 -31
-17 -46 14 -74 33 -29 84 -24 123 14 16 15 39 28 50 28 28 0 34 21 10 34 -14
7 -18 17 -15 31 6 24 -13 27 -37 5 -15 -14 -18 -14 -30 1 -11 13 -11 17 0 24
39 24 0 90 -54 90 -17 0 -41 -8 -53 -18z m54 -58 c8 -20 -9 -36 -30 -28 -20 7
-22 30 -4 37 21 9 27 7 34 -9z m11 -95 c35 -12 33 -25 -6 -40 -31 -12 -47 1
-37 30 8 25 4 24 43 10z"/>
<path d="M5525 8728 c-107 -35 -134 -50 -150 -84 -28 -59 10 -145 69 -156 27
-5 178 40 188 56 4 6 6 16 4 21 -3 11 -50 10 -76 -1 -16 -7 -23 -10 -55 -18
-11 -3 -30 -8 -42 -12 -31 -9 -58 35 -46 73 8 24 22 32 88 54 81 26 96 39 75
64 -14 17 -14 17 -55 3z"/>
<path d="M946 8711 c-8 -13 42 -163 57 -173 18 -11 63 -10 91 4 74 33 31 150
-52 143 -13 -1 -27 -7 -32 -14 -9 -16 -30 -6 -30 13 0 19 -27 40 -34 27z m129
-109 c6 -25 -6 -47 -28 -47 -18 -1 -46 45 -39 64 14 38 56 27 67 -17z"/>
<path d="M5048 8692 c-14 -9 -47 -44 -72 -76 -54 -69 -52 -75 31 -131 32 -22
60 -43 61 -47 2 -5 10 -8 17 -8 7 0 15 -4 17 -9 7 -17 84 -56 106 -53 38 6 29
22 -47 80 -22 17 -22 19 -7 34 9 9 16 21 16 27 0 6 3 11 8 12 4 0 16 2 27 4
11 3 46 6 77 7 52 3 58 5 58 24 0 38 -18 45 -117 44 -13 0 -22 4 -22 8 4 26
-5 47 -30 73 -35 34 -81 38 -123 11z m90 -80 c2 -13 -10 -35 -32 -59 l-34 -38
-26 24 c-31 29 -31 32 -8 59 9 11 25 30 35 42 17 20 20 20 40 7 12 -8 23 -24
25 -35z"/>
<path d="M3221 8551 c-13 -13 -18 -27 -14 -38 17 -45 70 -54 104 -17 19 20 19
22 2 42 -27 32 -67 38 -92 13z"/>
<path d="M2310 8519 c-96 -43 -129 -62 -133 -80 -10 -37 25 -40 91 -9 74 35
74 36 34 -100 -15 -52 -28 -106 -27 -120 0 -32 16 -30 113 16 41 19 77 34 82
34 4 0 13 7 20 16 11 12 11 18 -2 30 -14 14 -23 12 -87 -15 l-71 -30 5 27 c2
15 14 70 26 124 20 90 21 129 2 127 -4 0 -28 -9 -53 -20z"/>
<path d="M5711 8526 c-9 -11 -7 -22 9 -48 20 -35 19 -91 -1 -104 -5 -3 -42 6
-82 21 -58 20 -79 24 -100 16 -14 -6 -24 -17 -23 -25 2 -16 13 -31 24 -31 4
-1 25 -7 47 -14 48 -15 57 -18 70 -21 28 -6 46 -23 41 -38 -3 -9 -8 -33 -11
-52 -3 -19 -8 -36 -11 -39 -6 -7 27 -41 41 -41 7 0 21 41 34 102 12 56 23 104
25 105 2 2 27 -19 55 -47 43 -42 55 -49 71 -40 23 12 19 44 -10 75 -11 12 -20
27 -20 33 0 7 -3 12 -7 12 -5 0 -21 21 -38 48 -16 26 -38 56 -47 66 -10 11
-18 23 -18 28 0 13 -37 9 -49 -6z"/>
<path d="M6084 8480 c-32 -21 -50 -54 -56 -99 -2 -13 -10 -25 -18 -27 -53 -8
-74 -28 -58 -57 7 -14 16 -17 39 -12 24 6 29 3 29 -13 0 -38 44 -36 51 2 3 12
14 21 30 23 23 3 26 0 24 -22 -4 -31 22 -64 54 -70 32 -6 77 22 94 58 21 41 4
103 -29 111 -14 4 -29 4 -34 1 -4 -3 -7 14 -5 37 6 78 -54 111 -121 68z m80
-66 c10 -25 -15 -51 -50 -52 -29 -1 -32 1 -29 21 9 46 65 68 79 31z m93 -88
c3 -3 -2 -17 -11 -31 -14 -21 -20 -24 -32 -14 -8 6 -14 22 -14 34 0 18 5 22
26 19 14 -1 28 -5 31 -8z"/>
<path d="M4618 8448 c-21 -21 -39 -46 -39 -55 -5 -67 -4 -93 3 -93 4 0 8 -8 8
-17 0 -38 124 -96 186 -88 62 8 101 53 119 135 4 19 16 45 27 57 16 17 18 25
8 42 -9 18 -14 19 -31 10 -17 -9 -25 -7 -42 9 -30 27 -61 35 -136 37 -62 2
-66 0 -103 -37z m116 -5 c8 -8 13 -9 41 -12 20 -1 19 -20 -2 -43 -21 -23 -6
-53 25 -52 17 0 19 -3 11 -18 -19 -35 -51 -42 -113 -24 -44 13 -59 23 -66 42
-25 65 1 114 59 114 21 0 41 -3 45 -7z"/>
<path d="M3787 8428 c-13 -27 -13 -37 -2 -75 7 -23 11 -43 9 -43 -3 0 0 -9 6
-19 13 -25 -2 -30 -89 -30 -62 0 -81 -9 -81 -36 0 -30 20 -37 109 -38 55 -1
91 -5 92 -12 0 -5 2 -17 4 -25 2 -8 9 -46 16 -83 13 -70 28 -89 57 -71 25 16
30 46 17 99 -27 106 -31 100 61 101 92 1 104 6 99 36 -7 34 -15 37 -113 39
-50 1 -92 4 -93 8 0 3 -2 13 -4 21 -1 8 -9 44 -16 80 -18 88 -44 106 -72 48z"/>
<path d="M1588 8443 c-9 -2 -24 -16 -33 -29 -9 -14 -19 -23 -22 -20 -4 3 -14
-1 -24 -10 -17 -15 -16 -18 9 -54 15 -21 33 -46 39 -56 55 -82 96 -134 108
-134 23 0 23 24 -2 63 l-23 37 24 0 c14 0 37 11 53 24 40 33 42 77 6 129 -35
51 -75 66 -135 50z m79 -67 c26 -40 21 -74 -13 -86 -31 -12 -46 -5 -67 29 -22
37 -21 47 3 71 29 29 52 25 77 -14z"/>
<path d="M3249 8434 c-14 -17 -14 -60 0 -225 0 -9 13 -21 27 -28 35 -16 74 8
75 47 3 80 -9 193 -22 209 -16 18 -64 16 -80 -3z"/>
<path d="M3016 8400 c-9 -16 -23 -44 -32 -60 -18 -35 -30 -32 -39 10 -8 37
-19 44 -44 31 -19 -10 -18 -13 12 -106 26 -80 35 -95 53 -95 28 0 34 8 24 34
-5 14 -3 30 4 44 l12 23 39 -31 c39 -31 84 -38 92 -13 5 13 -46 63 -63 63 -27
0 -35 27 -18 63 29 61 -9 96 -40 37z"/>
<path d="M4265 8402 c-95 -32 -106 -38 -99 -57 8 -20 33 -26 56 -14 11 6 31
13 44 15 l25 5 -26 -45 c-15 -25 -24 -50 -20 -56 7 -11 64 -10 71 2 7 10 46 0
56 -14 15 -25 8 -47 -23 -69 -29 -21 -36 -21 -77 -10 -50 13 -68 5 -58 -27 6
-19 46 -36 86 -36 60 0 137 50 145 94 11 59 -34 120 -89 120 l-26 0 32 44 c32
46 33 77 1 75 -10 -1 -54 -13 -98 -27z"/>
<path d="M1252 8378 c-21 -21 -13 -35 51 -92 34 -30 80 -71 102 -91 44 -39 80
-43 80 -10 0 11 -16 33 -35 50 -36 31 -53 47 -112 101 -47 44 -72 56 -86 42z"/>
<path d="M5360 8319 c-59 -21 -75 -37 -90 -92 -12 -41 -9 -60 21 -124 51 -107
141 -134 232 -71 66 46 69 124 10 222 -45 74 -94 93 -173 65z m73 -50 c26 -12
77 -103 77 -136 0 -25 -34 -61 -66 -69 -32 -8 -70 18 -95 66 -27 49 -24 95 6
125 27 28 42 30 78 14z"/>
<path d="M1947 8248 c-9 -5 -17 -15 -17 -22 0 -7 -10 -12 -22 -12 -23 1 -25
-6 -14 -54 2 -8 0 -22 -4 -30 -43 -89 -49 -124 -24 -134 15 -6 102 20 114 33
3 4 12 7 20 9 40 8 121 53 118 64 -4 13 -45 36 -105 60 -34 13 -39 23 -24 47
19 29 -11 57 -42 39z m46 -120 c15 -7 27 -15 27 -18 0 -3 -20 -14 -45 -26 -50
-23 -50 -23 -33 23 14 37 14 38 51 21z"/>
<path d="M5134 8196 c-3 -8 0 -41 6 -72 7 -32 14 -67 15 -78 2 -12 6 -32 9
-46 4 -20 -9 -10 -64 46 -53 54 -76 71 -90 67 -28 -7 -28 -7 -34 -107 -3 -49
-8 -91 -10 -93 -2 -2 -11 11 -20 29 -73 139 -103 170 -138 140 -15 -13 -14
-18 14 -70 17 -31 39 -69 50 -84 10 -14 18 -29 18 -32 0 -24 86 -120 94 -104
1 2 8 11 15 21 9 11 16 53 19 105 2 48 6 89 8 91 2 2 34 -28 72 -67 82 -84
108 -93 136 -49 13 19 13 31 -4 104 -21 87 -30 134 -35 170 -2 12 -6 27 -10
32 -9 16 -45 13 -51 -3z"/>
<path d="M5913 8175 c-12 -26 -23 -35 -37 -33 -13 2 -22 -3 -24 -14 -2 -11 3
-18 12 -18 9 0 15 -3 15 -7 -3 -21 2 -33 15 -33 8 0 16 6 19 13 3 9 8 8 22 -3
10 -8 20 -14 21 -13 2 1 11 0 20 -4 8 -3 20 -1 26 5 9 9 3 29 -21 77 -18 36
-37 65 -42 65 -5 0 -17 -16 -26 -35z m57 -56 c0 -17 -3 -18 -20 -9 -20 11 -25
22 -14 33 11 11 34 -5 34 -24z"/>
<path d="M2512 8118 c-21 -46 -45 -98 -52 -115 -15 -38 -12 -38 -67 -17 -34
13 -46 14 -57 5 -23 -19 -9 -37 45 -60 27 -12 51 -21 54 -21 3 0 18 -6 34 -14
44 -23 114 -46 123 -40 24 15 -18 74 -53 74 -38 0 -35 11 37 167 27 58 29 74
12 91 -24 24 -38 11 -76 -70z"/>
<path d="M2750 8106 c-11 -14 -56 -149 -64 -190 -2 -14 -9 -33 -14 -42 -11
-19 -4 -55 12 -66 19 -13 43 11 56 57 7 25 16 47 20 50 3 2 36 -5 72 -16 l65
-19 -17 -53 c-19 -56 -17 -72 7 -81 26 -10 41 12 68 102 15 48 33 105 40 127
15 46 5 75 -25 75 -20 0 -50 -53 -53 -92 -2 -22 -26 -23 -72 -4 -19 8 -35 13
-35 10 0 -3 -9 0 -20 6 -19 10 -19 13 -5 47 21 51 20 89 -5 96 -10 3 -24 -1
-30 -7z"/>
<path d="M5767 8074 c-4 -4 -4 -17 -1 -30 4 -16 0 -25 -14 -33 -12 -6 -24 -20
-27 -31 -4 -11 -10 -18 -14 -16 -4 3 -22 -4 -40 -15 -17 -10 -42 -17 -54 -15
-12 2 -28 -2 -35 -10 -30 -32 59 -42 97 -11 8 7 23 12 34 12 11 0 21 7 22 16
2 8 17 29 35 47 24 24 30 37 25 54 -9 29 -19 40 -28 32z"/>
<path d="M4704 8029 c-6 -11 -6 -124 0 -181 2 -16 0 -28 -3 -28 -4 0 -29 29
-55 65 -56 76 -75 90 -101 71 -10 -7 -19 -19 -21 -27 -1 -8 -5 -34 -9 -59 -4
-25 -9 -52 -10 -60 -2 -8 -4 -22 -4 -29 -2 -27 -19 3 -54 94 -32 85 -51 106
-69 80 -15 -20 -7 -52 41 -164 53 -124 73 -144 110 -113 19 16 34 90 34 165
-1 42 2 40 85 -65 53 -67 79 -81 101 -55 13 17 4 286 -11 304 -13 16 -25 16
-34 2z"/>
<path d="M3063 8007 c-6 -12 -7 -37 -3 -57 47 -232 53 -252 82 -273 48 -35 56
-32 116 48 4 6 23 35 42 65 19 30 37 57 41 60 14 11 38 68 35 84 -6 43 -52 40
-78 -4 l-16 -29 -59 14 c-32 8 -63 14 -70 15 -7 0 -15 16 -19 35 -10 53 -55
79 -71 42z m144 -152 c23 -6 22 -24 -4 -55 -7 -8 -19 -24 -27 -35 -13 -18 -15
-15 -23 35 -11 62 -8 73 15 66 10 -2 27 -7 39 -11z"/>
<path d="M3466 7949 c-45 -12 -77 -48 -65 -70 13 -24 30 -24 62 1 47 38 100
18 116 -43 5 -22 7 -45 4 -51 -4 -6 -8 -24 -10 -41 -5 -43 -39 -67 -86 -61
-21 2 -46 11 -56 20 -23 21 -38 20 -50 -2 -20 -37 53 -85 131 -85 38 -1 55 5
85 30 33 26 40 39 52 101 19 91 9 135 -39 173 -38 31 -94 42 -144 28z"/>
<path d="M4200 7949 c-25 -3 -48 -5 -52 -2 -5 2 -13 1 -20 -3 -7 -5 -27 -8
-45 -7 -35 0 -58 -18 -50 -41 6 -15 36 -15 145 -2 56 7 53 9 56 -51 1 -18 -2
-19 -79 -22 -24 -1 -38 -7 -45 -22 -7 -11 -9 -23 -6 -26 3 -3 38 -6 77 -7 71
-1 72 -2 76 -28 5 -36 -8 -43 -132 -63 -5 -1 -20 -3 -31 -3 -12 -1 -25 -10
-28 -19 -9 -23 21 -45 48 -37 12 4 39 8 61 10 50 3 127 14 137 20 3 2 5 14 3
27 -2 12 -8 63 -14 112 -6 50 -13 104 -15 120 -3 17 -5 33 -5 36 -2 12 -35 15
-81 8z"/>
<path d="M1982 7928 c-7 -7 -8 -17 -2 -28 8 -15 4 -19 -21 -24 -27 -5 -29 -9
-26 -41 5 -43 22 -65 48 -60 11 2 23 -4 29 -16 13 -24 34 -14 27 12 -5 17 4
24 25 20 13 -2 27 36 23 59 -6 32 -24 50 -51 50 -14 0 -24 6 -24 14 0 20 -15
27 -28 14z m86 -83 c10 -22 9 -25 -8 -25 -22 0 -34 15 -26 35 8 22 21 18 34
-10z m-76 -10 c3 -14 2 -28 -2 -30 -11 -7 -43 32 -35 44 11 20 33 11 37 -14z"/>
<path d="M3941 7930 c-8 -4 -15 -27 -17 -50 -2 -23 -5 -45 -8 -47 -3 -3 -31
-6 -63 -8 -32 -1 -68 -8 -79 -15 -75 -47 -59 -155 26 -184 38 -13 165 -14 177
-2 5 4 8 73 9 152 1 125 -1 146 -15 154 -10 5 -23 5 -30 0z m-22 -186 c4 -10
6 -26 5 -34 -1 -8 -2 -21 -3 -27 -1 -17 -103 -17 -119 -1 -21 21 -14 56 13 70
38 20 97 16 104 -8z"/>
<path d="M5360 7907 c0 -2 6 -22 29 -96 7 -24 5 -34 -10 -52 -13 -15 -16 -26
-10 -32 13 -13 61 18 63 41 0 9 2 24 3 32 2 25 -44 110 -60 110 -8 0 -15 -1
-15 -3z"/>
<path d="M2220 7850 c-13 -8 -12 -16 4 -64 21 -61 46 -78 75 -52 10 9 22 16
27 16 5 0 20 9 34 20 24 18 24 20 7 37 -17 17 -19 17 -59 -5 -23 -12 -43 -21
-44 -19 -4 4 -12 45 -13 65 -1 14 -11 15 -31 2z"/>
<path d="M5150 7782 c-13 -2 -30 -11 -37 -20 -19 -26 -16 -76 7 -97 16 -14 17
-20 8 -27 -21 -12 -24 -10 -44 32 -18 37 -55 57 -50 27 2 -17 54 -104 65 -112
12 -7 83 25 94 43 4 6 15 12 22 12 16 0 19 9 17 50 -3 61 -37 99 -82 92z m55
-100 c-2 -20 -4 -39 -4 -41 -1 -2 -8 3 -17 10 -27 22 -34 52 -16 71 22 26 41
6 37 -40z"/>
<path d="M2456 7759 c-45 -36 -61 -142 -26 -174 30 -27 96 -28 120 -2 45 47
13 117 -52 117 -33 0 -38 24 -9 40 16 8 25 5 47 -15 30 -28 44 -32 44 -11 0
49 -82 78 -124 45z m54 -99 c20 -12 21 -47 2 -55 -18 -7 -62 20 -62 39 0 26
31 35 60 16z"/>
<path d="M4916 7718 c-7 -30 -34 -175 -40 -211 -4 -22 -1 -28 12 -25 18 3 25
29 47 163 3 17 8 45 11 63 5 25 3 32 -10 32 -8 0 -18 -10 -20 -22z"/>
<path d="M2750 7719 c-60 -13 -110 -87 -72 -108 13 -7 24 -1 50 25 27 28 41
34 66 32 42 -4 47 -37 12 -79 -28 -32 -29 -38 -20 -63 12 -30 48 -18 67 22 9
20 25 49 34 64 23 35 9 78 -32 97 -35 17 -59 19 -105 10z"/>
<path d="M4595 7678 c-3 -13 -4 -70 -1 -128 2 -58 5 -117 5 -132 1 -18 6 -28
16 -28 19 0 33 35 28 69 -2 14 -5 69 -7 122 -2 53 -6 101 -10 108 -11 18 -25
13 -31 -11z"/>
<path d="M3133 7601 c-37 -67 -36 -67 -75 -43 -31 19 -37 20 -48 7 -14 -16 -5
-35 16 -35 8 0 17 -7 20 -15 4 -8 12 -15 18 -15 31 0 34 -22 10 -75 -19 -44
-21 -55 -10 -64 15 -13 46 -4 46 13 1 6 9 28 19 49 14 30 20 35 29 25 6 -7 24
-21 41 -31 29 -17 30 -17 41 3 9 17 7 22 -15 30 -14 5 -38 19 -55 31 -29 22
-29 22 -13 58 18 40 19 69 4 84 -7 7 -16 0 -28 -22z"/>
<path d="M4686 7594 c-29 -28 -10 -90 31 -105 27 -10 73 23 68 49 -2 9 -4 20
-4 24 -2 14 -45 48 -62 48 -10 0 -25 -7 -33 -16z m63 -43 c14 -26 -10 -48 -29
-26 -13 16 -7 45 9 45 6 0 15 -9 20 -19z"/>
<path d="M4473 7583 c-13 -8 -23 -23 -23 -33 0 -23 46 -75 67 -75 45 -1 70 60
41 98 -19 24 -59 29 -85 10z m58 -39 c11 -14 10 -18 -5 -30 -17 -12 -21 -11
-31 3 -9 12 -9 20 -1 29 15 17 21 17 37 -2z"/>
<path d="M4279 7564 c-1 -5 -2 -25 -3 -44 -1 -24 -6 -36 -18 -38 -19 -4 -48
19 -48 37 0 14 -13 14 -27 0 -14 -14 13 -76 36 -84 19 -5 48 -2 57 8 12 12 24
8 24 -8 0 -14 10 -19 27 -12 10 3 4 60 -8 72 -5 5 -9 19 -9 31 0 21 -29 56
-31 38z"/>
<path d="M3517 7543 c-3 -5 -8 -28 -12 -53 -12 -71 -14 -82 -19 -87 -2 -3 -41
21 -85 52 -84 59 -126 69 -126 30 0 -14 29 -37 104 -83 123 -75 155 -85 164
-50 4 12 7 41 8 63 0 22 4 48 8 59 12 32 1 76 -20 76 -10 0 -20 -3 -22 -7z"/>
<path d="M3743 7513 c-7 -2 -13 -20 -13 -39 0 -42 37 -84 73 -84 14 0 27 -7
31 -15 8 -22 30 -18 54 10 12 14 30 25 39 26 10 0 25 2 33 4 8 2 25 5 38 7 36
7 49 25 30 44 -13 14 -24 14 -67 5 -73 -16 -78 -15 -90 19 -11 32 -17 35 -40
21 -8 -5 -12 -19 -9 -35 4 -20 1 -26 -13 -26 -13 0 -19 7 -19 23 0 13 -5 28
-12 35 -13 13 -16 13 -35 5z"/>
<path d="M2823 7473 c-15 -5 -17 -32 -4 -52 10 -16 47 -7 55 14 13 34 -14 54
-51 38z"/>
</g>
</svg>
